<svg width="1018" height="577" viewBox="0 0 1018 577" fill="none" xmlns="http://www.w3.org/2000/svg">
<g clip-path="url(#clip0_561_1376)">
<path d="M68.1525 230.535H28.6348V298.593H68.1525V230.535Z" fill="#465348"/>
<path d="M126.69 230.535H68.1525V298.593H126.69V230.535Z" fill="#8E9F8F"/>
<path d="M28.6348 230.535L68.4718 246.153L126.69 230.535H28.6348Z" fill="#C7D0C8"/>
<path d="M67.6494 309.857L32.019 299.093H67.6001L67.6494 309.857Z" fill="#465348" stroke="#465348"/>
<path d="M68.6525 299.093H121.736L68.6525 309.919V299.093Z" fill="#8E9F8F" stroke="#8E9F8F"/>
<path d="M205.5 196.5H261.104L205.5 216.291V196.5Z" fill="#8E9F8F" stroke="#8E9F8F"/>
<path d="M205.251 80.5225H165.733V196.488H205.251V80.5225Z" fill="#465348"/>
<path d="M263.789 80.5225H205.251V196.488H263.789V80.5225Z" fill="#8E9F8F"/>
<path d="M165.733 80.5225L205.57 107.131L263.78 80.5225H165.733Z" fill="#C7D0C8"/>
<path d="M204.749 216.009L167.797 196.988H204.698L204.749 216.009Z" fill="#465348" stroke="#465348"/>
<path d="M32.775 215L39.825 199.05L40.875 200.8H31.45L33.25 198.9V203.65H29.65V197.5H43.675V200.125L37.175 215H32.775ZM52.3129 215.3C50.8462 215.3 49.5629 215.083 48.4629 214.65C47.3629 214.2 46.5046 213.575 45.8879 212.775C45.2712 211.958 44.9629 211.008 44.9629 209.925C44.9629 208.842 45.2629 207.925 45.8629 207.175C46.4796 206.408 47.3379 205.833 48.4379 205.45C49.5379 205.05 50.8296 204.85 52.3129 204.85C53.8129 204.85 55.1129 205.05 56.2129 205.45C57.3296 205.833 58.1879 206.408 58.7879 207.175C59.4046 207.925 59.7129 208.842 59.7129 209.925C59.7129 211.008 59.4046 211.958 58.7879 212.775C58.1712 213.575 57.3046 214.2 56.1879 214.65C55.0879 215.083 53.7962 215.3 52.3129 215.3ZM52.3129 212.325C53.3296 212.325 54.1296 212.1 54.7129 211.65C55.3129 211.2 55.6129 210.583 55.6129 209.8C55.6129 209.017 55.3129 208.408 54.7129 207.975C54.1296 207.525 53.3296 207.3 52.3129 207.3C51.3129 207.3 50.5212 207.525 49.9379 207.975C49.3546 208.408 49.0629 209.017 49.0629 209.8C49.0629 210.583 49.3546 211.2 49.9379 211.65C50.5212 212.1 51.3129 212.325 52.3129 212.325ZM52.3129 206.9C50.9629 206.9 49.7796 206.717 48.7629 206.35C47.7629 205.983 46.9796 205.45 46.4129 204.75C45.8629 204.033 45.5879 203.183 45.5879 202.2C45.5879 201.167 45.8712 200.283 46.4379 199.55C47.0046 198.8 47.7962 198.225 48.8129 197.825C49.8296 197.408 50.9962 197.2 52.3129 197.2C53.6629 197.2 54.8379 197.408 55.8379 197.825C56.8546 198.225 57.6462 198.8 58.2129 199.55C58.7962 200.283 59.0879 201.167 59.0879 202.2C59.0879 203.183 58.8046 204.033 58.2379 204.75C57.6879 205.45 56.9046 205.983 55.8879 206.35C54.8712 206.717 53.6796 206.9 52.3129 206.9ZM52.3129 204.525C53.1629 204.525 53.8296 204.333 54.3129 203.95C54.8129 203.567 55.0629 203.042 55.0629 202.375C55.0629 201.675 54.8046 201.133 54.2879 200.75C53.7879 200.367 53.1296 200.175 52.3129 200.175C51.5129 200.175 50.8629 200.367 50.3629 200.75C49.8629 201.133 49.6129 201.675 49.6129 202.375C49.6129 203.042 49.8546 203.567 50.3379 203.95C50.8212 204.333 51.4796 204.525 52.3129 204.525ZM74.9719 215.2C73.3885 215.2 72.1552 214.8 71.2719 214C70.3885 213.183 69.9469 211.975 69.9469 210.375V198.575H73.8469V210.325C73.8469 210.892 73.9969 211.333 74.2969 211.65C74.5969 211.95 75.0052 212.1 75.5219 212.1C76.1385 212.1 76.6635 211.933 77.0969 211.6L78.1469 214.35C77.7469 214.633 77.2635 214.85 76.6969 215C76.1469 215.133 75.5719 215.2 74.9719 215.2ZM67.8719 204.85V201.85H77.1969V204.85H67.8719ZM86.3211 215.2C84.8878 215.2 83.6128 214.9 82.4961 214.3C81.3961 213.7 80.5211 212.883 79.8711 211.85C79.2378 210.8 78.9211 209.608 78.9211 208.275C78.9211 206.925 79.2378 205.733 79.8711 204.7C80.5211 203.65 81.3961 202.833 82.4961 202.25C83.6128 201.65 84.8878 201.35 86.3211 201.35C87.7378 201.35 89.0044 201.65 90.1211 202.25C91.2378 202.833 92.1128 203.642 92.7461 204.675C93.3794 205.708 93.6961 206.908 93.6961 208.275C93.6961 209.608 93.3794 210.8 92.7461 211.85C92.1128 212.883 91.2378 213.7 90.1211 214.3C89.0044 214.9 87.7378 215.2 86.3211 215.2ZM86.3211 212C86.9711 212 87.5544 211.85 88.0711 211.55C88.5878 211.25 88.9961 210.825 89.2961 210.275C89.5961 209.708 89.7461 209.042 89.7461 208.275C89.7461 207.492 89.5961 206.825 89.2961 206.275C88.9961 205.725 88.5878 205.3 88.0711 205C87.5544 204.7 86.9711 204.55 86.3211 204.55C85.6711 204.55 85.0878 204.7 84.5711 205C84.0544 205.3 83.6378 205.725 83.3211 206.275C83.0211 206.825 82.8711 207.492 82.8711 208.275C82.8711 209.042 83.0211 209.708 83.3211 210.275C83.6378 210.825 84.0544 211.25 84.5711 211.55C85.0878 211.85 85.6711 212 86.3211 212ZM104.478 201.35C105.545 201.35 106.495 201.567 107.328 202C108.178 202.417 108.845 203.067 109.328 203.95C109.811 204.817 110.053 205.933 110.053 207.3V215H106.153V207.9C106.153 206.817 105.911 206.017 105.428 205.5C104.961 204.983 104.295 204.725 103.428 204.725C102.811 204.725 102.253 204.858 101.753 205.125C101.27 205.375 100.886 205.767 100.603 206.3C100.336 206.833 100.203 207.517 100.203 208.35V215H96.3029V201.55H100.028V205.275L99.3279 204.15C99.8113 203.25 100.503 202.558 101.403 202.075C102.303 201.592 103.328 201.35 104.478 201.35ZM118.113 215.2C116.963 215.2 115.855 215.067 114.788 214.8C113.738 214.517 112.905 214.167 112.288 213.75L113.588 210.95C114.205 211.333 114.93 211.65 115.763 211.9C116.613 212.133 117.446 212.25 118.263 212.25C119.163 212.25 119.796 212.142 120.163 211.925C120.546 211.708 120.738 211.408 120.738 211.025C120.738 210.708 120.588 210.475 120.288 210.325C120.005 210.158 119.621 210.033 119.138 209.95C118.655 209.867 118.121 209.783 117.538 209.7C116.971 209.617 116.396 209.508 115.813 209.375C115.23 209.225 114.696 209.008 114.213 208.725C113.73 208.442 113.338 208.058 113.038 207.575C112.755 207.092 112.613 206.467 112.613 205.7C112.613 204.85 112.855 204.1 113.338 203.45C113.838 202.8 114.555 202.292 115.488 201.925C116.421 201.542 117.538 201.35 118.838 201.35C119.755 201.35 120.688 201.45 121.638 201.65C122.588 201.85 123.38 202.142 124.013 202.525L122.713 205.3C122.063 204.917 121.405 204.658 120.738 204.525C120.088 204.375 119.455 204.3 118.838 204.3C117.971 204.3 117.338 204.417 116.938 204.65C116.538 204.883 116.338 205.183 116.338 205.55C116.338 205.883 116.48 206.133 116.763 206.3C117.063 206.467 117.455 206.6 117.938 206.7C118.421 206.8 118.946 206.892 119.513 206.975C120.096 207.042 120.68 207.15 121.263 207.3C121.846 207.45 122.371 207.667 122.838 207.95C123.321 208.217 123.713 208.592 124.013 209.075C124.313 209.542 124.463 210.158 124.463 210.925C124.463 211.758 124.213 212.5 123.713 213.15C123.213 213.783 122.488 214.283 121.538 214.65C120.605 215.017 119.463 215.2 118.113 215.2Z" fill="#5A7BBD"/>
<path d="M168.675 65V49L170.425 50.75H165.175V47.5H172.725V65H168.675ZM178.565 65L185.615 49.05L186.665 50.8H177.24L179.04 48.9V53.65H175.44V47.5H189.465V50.125L182.965 65H178.565ZM194.212 65V49L195.962 50.75H190.712V47.5H198.262V65H194.212ZM214.707 65.2C213.124 65.2 211.891 64.8 211.007 64C210.124 63.1833 209.682 61.975 209.682 60.375V48.575H213.582V60.325C213.582 60.8917 213.732 61.3333 214.032 61.65C214.332 61.95 214.741 62.1 215.257 62.1C215.874 62.1 216.399 61.9333 216.832 61.6L217.882 64.35C217.482 64.6333 216.999 64.85 216.432 65C215.882 65.1333 215.307 65.2 214.707 65.2ZM207.607 54.85V51.85H216.932V54.85H207.607ZM226.056 65.2C224.623 65.2 223.348 64.9 222.231 64.3C221.131 63.7 220.256 62.8833 219.606 61.85C218.973 60.8 218.656 59.6083 218.656 58.275C218.656 56.925 218.973 55.7333 219.606 54.7C220.256 53.65 221.131 52.8333 222.231 52.25C223.348 51.65 224.623 51.35 226.056 51.35C227.473 51.35 228.74 51.65 229.856 52.25C230.973 52.8333 231.848 53.6417 232.481 54.675C233.115 55.7083 233.431 56.9083 233.431 58.275C233.431 59.6083 233.115 60.8 232.481 61.85C231.848 62.8833 230.973 63.7 229.856 64.3C228.74 64.9 227.473 65.2 226.056 65.2ZM226.056 62C226.706 62 227.29 61.85 227.806 61.55C228.323 61.25 228.731 60.825 229.031 60.275C229.331 59.7083 229.481 59.0417 229.481 58.275C229.481 57.4917 229.331 56.825 229.031 56.275C228.731 55.725 228.323 55.3 227.806 55C227.29 54.7 226.706 54.55 226.056 54.55C225.406 54.55 224.823 54.7 224.306 55C223.79 55.3 223.373 55.725 223.056 56.275C222.756 56.825 222.606 57.4917 222.606 58.275C222.606 59.0417 222.756 59.7083 223.056 60.275C223.373 60.825 223.79 61.25 224.306 61.55C224.823 61.85 225.406 62 226.056 62ZM244.213 51.35C245.28 51.35 246.23 51.5667 247.063 52C247.913 52.4167 248.58 53.0667 249.063 53.95C249.547 54.8167 249.788 55.9333 249.788 57.3V65H245.888V57.9C245.888 56.8167 245.647 56.0167 245.163 55.5C244.697 54.9833 244.03 54.725 243.163 54.725C242.547 54.725 241.988 54.8583 241.488 55.125C241.005 55.375 240.622 55.7667 240.338 56.3C240.072 56.8333 239.938 57.5167 239.938 58.35V65H236.038V51.55H239.763V55.275L239.063 54.15C239.547 53.25 240.238 52.5583 241.138 52.075C242.038 51.5917 243.063 51.35 244.213 51.35ZM257.848 65.2C256.698 65.2 255.59 65.0667 254.523 64.8C253.473 64.5167 252.64 64.1667 252.023 63.75L253.323 60.95C253.94 61.3333 254.665 61.65 255.498 61.9C256.348 62.1333 257.182 62.25 257.998 62.25C258.898 62.25 259.532 62.1417 259.898 61.925C260.282 61.7083 260.473 61.4083 260.473 61.025C260.473 60.7083 260.323 60.475 260.023 60.325C259.74 60.1583 259.357 60.0333 258.873 59.95C258.39 59.8667 257.857 59.7833 257.273 59.7C256.707 59.6167 256.132 59.5083 255.548 59.375C254.965 59.225 254.432 59.0083 253.948 58.725C253.465 58.4417 253.073 58.0583 252.773 57.575C252.49 57.0917 252.348 56.4667 252.348 55.7C252.348 54.85 252.59 54.1 253.073 53.45C253.573 52.8 254.29 52.2917 255.223 51.925C256.157 51.5417 257.273 51.35 258.573 51.35C259.49 51.35 260.423 51.45 261.373 51.65C262.323 51.85 263.115 52.1417 263.748 52.525L262.448 55.3C261.798 54.9167 261.14 54.6583 260.473 54.525C259.823 54.375 259.19 54.3 258.573 54.3C257.707 54.3 257.073 54.4167 256.673 54.65C256.273 54.8833 256.073 55.1833 256.073 55.55C256.073 55.8833 256.215 56.1333 256.498 56.3C256.798 56.4667 257.19 56.6 257.673 56.7C258.157 56.8 258.682 56.8917 259.248 56.975C259.832 57.0417 260.415 57.15 260.998 57.3C261.582 57.45 262.107 57.6667 262.573 57.95C263.057 58.2167 263.448 58.5917 263.748 59.075C264.048 59.5417 264.198 60.1583 264.198 60.925C264.198 61.7583 263.948 62.5 263.448 63.15C262.948 63.7833 262.223 64.2833 261.273 64.65C260.34 65.0167 259.198 65.2 257.848 65.2Z" fill="#5A7BBD"/>
<path d="M367.527 181.645H323.959V463.629H367.527V181.645Z" fill="#465348"/>
<path d="M432.058 181.645H367.527V463.629H432.058V181.645Z" fill="#8E9F8F"/>
<path d="M323.959 181.645L367.874 246.36L432.049 181.645H323.959Z" fill="#C7D0C8"/>
<path d="M367.463 463.629H323.959L367.527 513.104L367.463 463.629Z" fill="#465348"/>
<path d="M367.527 463.629H432.049L367.527 513.104V463.629Z" fill="#8E9F8F"/>
<path d="M329.65 167.3C328.433 167.3 327.225 167.142 326.025 166.825C324.825 166.492 323.808 166.025 322.975 165.425L324.55 162.325C325.217 162.808 325.992 163.192 326.875 163.475C327.758 163.758 328.65 163.9 329.55 163.9C330.567 163.9 331.367 163.7 331.95 163.3C332.533 162.9 332.825 162.35 332.825 161.65C332.825 160.983 332.567 160.458 332.05 160.075C331.533 159.692 330.7 159.5 329.55 159.5H327.7V156.825L332.575 151.3L333.025 152.75H323.85V149.5H336.1V152.125L331.25 157.65L329.2 156.475H330.375C332.525 156.475 334.15 156.958 335.25 157.925C336.35 158.892 336.9 160.133 336.9 161.65C336.9 162.633 336.642 163.558 336.125 164.425C335.608 165.275 334.817 165.967 333.75 166.5C332.683 167.033 331.317 167.3 329.65 167.3ZM344.476 167.3C343.259 167.3 342.051 167.142 340.851 166.825C339.667 166.492 338.651 166.025 337.801 165.425L339.401 162.325C340.067 162.808 340.834 163.192 341.701 163.475C342.584 163.758 343.476 163.9 344.376 163.9C345.392 163.9 346.192 163.7 346.776 163.3C347.359 162.9 347.651 162.342 347.651 161.625C347.651 161.175 347.534 160.775 347.301 160.425C347.067 160.075 346.651 159.808 346.051 159.625C345.467 159.442 344.642 159.35 343.576 159.35H339.101L340.001 149.5H350.676V152.75H341.451L343.551 150.9L342.926 157.925L340.826 156.075H344.526C346.259 156.075 347.651 156.317 348.701 156.8C349.767 157.267 350.542 157.908 351.026 158.725C351.509 159.542 351.751 160.467 351.751 161.5C351.751 162.533 351.492 163.492 350.976 164.375C350.459 165.242 349.659 165.95 348.576 166.5C347.509 167.033 346.142 167.3 344.476 167.3ZM360.644 167.3C359.177 167.3 357.894 167.083 356.794 166.65C355.694 166.2 354.836 165.575 354.219 164.775C353.602 163.958 353.294 163.008 353.294 161.925C353.294 160.842 353.594 159.925 354.194 159.175C354.811 158.408 355.669 157.833 356.769 157.45C357.869 157.05 359.161 156.85 360.644 156.85C362.144 156.85 363.444 157.05 364.544 157.45C365.661 157.833 366.519 158.408 367.119 159.175C367.736 159.925 368.044 160.842 368.044 161.925C368.044 163.008 367.736 163.958 367.119 164.775C366.502 165.575 365.636 166.2 364.519 166.65C363.419 167.083 362.127 167.3 360.644 167.3ZM360.644 164.325C361.661 164.325 362.461 164.1 363.044 163.65C363.644 163.2 363.944 162.583 363.944 161.8C363.944 161.017 363.644 160.408 363.044 159.975C362.461 159.525 361.661 159.3 360.644 159.3C359.644 159.3 358.852 159.525 358.269 159.975C357.686 160.408 357.394 161.017 357.394 161.8C357.394 162.583 357.686 163.2 358.269 163.65C358.852 164.1 359.644 164.325 360.644 164.325ZM360.644 158.9C359.294 158.9 358.111 158.717 357.094 158.35C356.094 157.983 355.311 157.45 354.744 156.75C354.194 156.033 353.919 155.183 353.919 154.2C353.919 153.167 354.202 152.283 354.769 151.55C355.336 150.8 356.127 150.225 357.144 149.825C358.161 149.408 359.327 149.2 360.644 149.2C361.994 149.2 363.169 149.408 364.169 149.825C365.186 150.225 365.977 150.8 366.544 151.55C367.127 152.283 367.419 153.167 367.419 154.2C367.419 155.183 367.136 156.033 366.569 156.75C366.019 157.45 365.236 157.983 364.219 158.35C363.202 158.717 362.011 158.9 360.644 158.9ZM360.644 156.525C361.494 156.525 362.161 156.333 362.644 155.95C363.144 155.567 363.394 155.042 363.394 154.375C363.394 153.675 363.136 153.133 362.619 152.75C362.119 152.367 361.461 152.175 360.644 152.175C359.844 152.175 359.194 152.367 358.694 152.75C358.194 153.133 357.944 153.675 357.944 154.375C357.944 155.042 358.186 155.567 358.669 155.95C359.152 156.333 359.811 156.525 360.644 156.525ZM383.303 167.2C381.72 167.2 380.486 166.8 379.603 166C378.72 165.183 378.278 163.975 378.278 162.375V150.575H382.178V162.325C382.178 162.892 382.328 163.333 382.628 163.65C382.928 163.95 383.336 164.1 383.853 164.1C384.47 164.1 384.995 163.933 385.428 163.6L386.478 166.35C386.078 166.633 385.595 166.85 385.028 167C384.478 167.133 383.903 167.2 383.303 167.2ZM376.203 156.85V153.85H385.528V156.85H376.203ZM394.652 167.2C393.219 167.2 391.944 166.9 390.827 166.3C389.727 165.7 388.852 164.883 388.202 163.85C387.569 162.8 387.252 161.608 387.252 160.275C387.252 158.925 387.569 157.733 388.202 156.7C388.852 155.65 389.727 154.833 390.827 154.25C391.944 153.65 393.219 153.35 394.652 153.35C396.069 153.35 397.335 153.65 398.452 154.25C399.569 154.833 400.444 155.642 401.077 156.675C401.71 157.708 402.027 158.908 402.027 160.275C402.027 161.608 401.71 162.8 401.077 163.85C400.444 164.883 399.569 165.7 398.452 166.3C397.335 166.9 396.069 167.2 394.652 167.2ZM394.652 164C395.302 164 395.885 163.85 396.402 163.55C396.919 163.25 397.327 162.825 397.627 162.275C397.927 161.708 398.077 161.042 398.077 160.275C398.077 159.492 397.927 158.825 397.627 158.275C397.327 157.725 396.919 157.3 396.402 157C395.885 156.7 395.302 156.55 394.652 156.55C394.002 156.55 393.419 156.7 392.902 157C392.385 157.3 391.969 157.725 391.652 158.275C391.352 158.825 391.202 159.492 391.202 160.275C391.202 161.042 391.352 161.708 391.652 162.275C391.969 162.825 392.385 163.25 392.902 163.55C393.419 163.85 394.002 164 394.652 164ZM412.809 153.35C413.876 153.35 414.826 153.567 415.659 154C416.509 154.417 417.176 155.067 417.659 155.95C418.142 156.817 418.384 157.933 418.384 159.3V167H414.484V159.9C414.484 158.817 414.242 158.017 413.759 157.5C413.292 156.983 412.626 156.725 411.759 156.725C411.142 156.725 410.584 156.858 410.084 157.125C409.601 157.375 409.217 157.767 408.934 158.3C408.667 158.833 408.534 159.517 408.534 160.35V167H404.634V153.55H408.359V157.275L407.659 156.15C408.142 155.25 408.834 154.558 409.734 154.075C410.634 153.592 411.659 153.35 412.809 153.35ZM426.444 167.2C425.294 167.2 424.186 167.067 423.119 166.8C422.069 166.517 421.236 166.167 420.619 165.75L421.919 162.95C422.536 163.333 423.261 163.65 424.094 163.9C424.944 164.133 425.777 164.25 426.594 164.25C427.494 164.25 428.127 164.142 428.494 163.925C428.877 163.708 429.069 163.408 429.069 163.025C429.069 162.708 428.919 162.475 428.619 162.325C428.336 162.158 427.952 162.033 427.469 161.95C426.986 161.867 426.452 161.783 425.869 161.7C425.302 161.617 424.727 161.508 424.144 161.375C423.561 161.225 423.027 161.008 422.544 160.725C422.061 160.442 421.669 160.058 421.369 159.575C421.086 159.092 420.944 158.467 420.944 157.7C420.944 156.85 421.186 156.1 421.669 155.45C422.169 154.8 422.886 154.292 423.819 153.925C424.752 153.542 425.869 153.35 427.169 153.35C428.086 153.35 429.019 153.45 429.969 153.65C430.919 153.85 431.711 154.142 432.344 154.525L431.044 157.3C430.394 156.917 429.736 156.658 429.069 156.525C428.419 156.375 427.786 156.3 427.169 156.3C426.302 156.3 425.669 156.417 425.269 156.65C424.869 156.883 424.669 157.183 424.669 157.55C424.669 157.883 424.811 158.133 425.094 158.3C425.394 158.467 425.786 158.6 426.269 158.7C426.752 158.8 427.277 158.892 427.844 158.975C428.427 159.042 429.011 159.15 429.594 159.3C430.177 159.45 430.702 159.667 431.169 159.95C431.652 160.217 432.044 160.592 432.344 161.075C432.644 161.542 432.794 162.158 432.794 162.925C432.794 163.758 432.544 164.5 432.044 165.15C431.544 165.783 430.819 166.283 429.869 166.65C428.936 167.017 427.794 167.2 426.444 167.2Z" fill="#5A7BBD"/>
<path d="M569.613 34.3914H526.018V300.791H569.613V34.3914Z" fill="#465348"/>
<path d="M634.171 34.3914H569.604V300.791H634.171V34.3914Z" fill="#8E9F8F"/>
<path d="M526.018 34.3914L569.96 95.5288L634.171 34.3914H526.018Z" fill="#C7D0C8"/>
<path d="M569.549 300.8H526.018L569.604 347.543L569.549 300.8Z" fill="#465348"/>
<path d="M569.604 300.8H634.171L569.604 347.543V300.8Z" fill="#8E9F8F"/>
<path d="M529.65 21.3C528.433 21.3 527.225 21.1417 526.025 20.825C524.825 20.4917 523.808 20.025 522.975 19.425L524.55 16.325C525.217 16.8083 525.992 17.1917 526.875 17.475C527.758 17.7583 528.65 17.9 529.55 17.9C530.567 17.9 531.367 17.7 531.95 17.3C532.533 16.9 532.825 16.35 532.825 15.65C532.825 14.9833 532.567 14.4583 532.05 14.075C531.533 13.6917 530.7 13.5 529.55 13.5H527.7V10.825L532.575 5.3L533.025 6.75H523.85V3.5H536.1V6.125L531.25 11.65L529.2 10.475H530.375C532.525 10.475 534.15 10.9583 535.25 11.925C536.35 12.8917 536.9 14.1333 536.9 15.65C536.9 16.6333 536.642 17.5583 536.125 18.425C535.608 19.275 534.817 19.9667 533.75 20.5C532.683 21.0333 531.317 21.3 529.65 21.3ZM538.57 17.325V14.6L546.82 3.5H551.07L542.995 14.6L541.02 14.025H554.795V17.325H538.57ZM547.995 21V17.325L548.12 14.025V10.75H551.945V21H547.995ZM563.5 21.3C562.034 21.3 560.75 21.0833 559.65 20.65C558.55 20.2 557.692 19.575 557.075 18.775C556.459 17.9583 556.15 17.0083 556.15 15.925C556.15 14.8417 556.45 13.925 557.05 13.175C557.667 12.4083 558.525 11.8333 559.625 11.45C560.725 11.05 562.017 10.85 563.5 10.85C565 10.85 566.3 11.05 567.4 11.45C568.517 11.8333 569.375 12.4083 569.975 13.175C570.592 13.925 570.9 14.8417 570.9 15.925C570.9 17.0083 570.592 17.9583 569.975 18.775C569.359 19.575 568.492 20.2 567.375 20.65C566.275 21.0833 564.984 21.3 563.5 21.3ZM563.5 18.325C564.517 18.325 565.317 18.1 565.9 17.65C566.5 17.2 566.8 16.5833 566.8 15.8C566.8 15.0167 566.5 14.4083 565.9 13.975C565.317 13.525 564.517 13.3 563.5 13.3C562.5 13.3 561.709 13.525 561.125 13.975C560.542 14.4083 560.25 15.0167 560.25 15.8C560.25 16.5833 560.542 17.2 561.125 17.65C561.709 18.1 562.5 18.325 563.5 18.325ZM563.5 12.9C562.15 12.9 560.967 12.7167 559.95 12.35C558.95 11.9833 558.167 11.45 557.6 10.75C557.05 10.0333 556.775 9.18333 556.775 8.2C556.775 7.16667 557.059 6.28333 557.625 5.55C558.192 4.8 558.984 4.225 560 3.825C561.017 3.40833 562.184 3.2 563.5 3.2C564.85 3.2 566.025 3.40833 567.025 3.825C568.042 4.225 568.834 4.8 569.4 5.55C569.984 6.28333 570.275 7.16667 570.275 8.2C570.275 9.18333 569.992 10.0333 569.425 10.75C568.875 11.45 568.092 11.9833 567.075 12.35C566.059 12.7167 564.867 12.9 563.5 12.9ZM563.5 10.525C564.35 10.525 565.017 10.3333 565.5 9.95C566 9.56667 566.25 9.04167 566.25 8.375C566.25 7.675 565.992 7.13333 565.475 6.75C564.975 6.36667 564.317 6.175 563.5 6.175C562.7 6.175 562.05 6.36667 561.55 6.75C561.05 7.13333 560.8 7.675 560.8 8.375C560.8 9.04167 561.042 9.56667 561.525 9.95C562.009 10.3333 562.667 10.525 563.5 10.525ZM586.159 21.2C584.576 21.2 583.343 20.8 582.459 20C581.576 19.1833 581.134 17.975 581.134 16.375V4.575H585.034V16.325C585.034 16.8917 585.184 17.3333 585.484 17.65C585.784 17.95 586.193 18.1 586.709 18.1C587.326 18.1 587.851 17.9333 588.284 17.6L589.334 20.35C588.934 20.6333 588.451 20.85 587.884 21C587.334 21.1333 586.759 21.2 586.159 21.2ZM579.059 10.85V7.85H588.384V10.85H579.059ZM597.509 21.2C596.075 21.2 594.8 20.9 593.684 20.3C592.584 19.7 591.709 18.8833 591.059 17.85C590.425 16.8 590.109 15.6083 590.109 14.275C590.109 12.925 590.425 11.7333 591.059 10.7C591.709 9.65 592.584 8.83333 593.684 8.25C594.8 7.65 596.075 7.35 597.509 7.35C598.925 7.35 600.192 7.65 601.309 8.25C602.425 8.83333 603.3 9.64167 603.934 10.675C604.567 11.7083 604.884 12.9083 604.884 14.275C604.884 15.6083 604.567 16.8 603.934 17.85C603.3 18.8833 602.425 19.7 601.309 20.3C600.192 20.9 598.925 21.2 597.509 21.2ZM597.509 18C598.159 18 598.742 17.85 599.259 17.55C599.775 17.25 600.184 16.825 600.484 16.275C600.784 15.7083 600.934 15.0417 600.934 14.275C600.934 13.4917 600.784 12.825 600.484 12.275C600.184 11.725 599.775 11.3 599.259 11C598.742 10.7 598.159 10.55 597.509 10.55C596.859 10.55 596.275 10.7 595.759 11C595.242 11.3 594.825 11.725 594.509 12.275C594.209 12.825 594.059 13.4917 594.059 14.275C594.059 15.0417 594.209 15.7083 594.509 16.275C594.825 16.825 595.242 17.25 595.759 17.55C596.275 17.85 596.859 18 597.509 18ZM615.665 7.35C616.732 7.35 617.682 7.56667 618.515 8C619.365 8.41667 620.032 9.06667 620.515 9.95C620.999 10.8167 621.24 11.9333 621.24 13.3V21H617.34V13.9C617.34 12.8167 617.099 12.0167 616.615 11.5C616.149 10.9833 615.482 10.725 614.615 10.725C613.999 10.725 613.44 10.8583 612.94 11.125C612.457 11.375 612.074 11.7667 611.79 12.3C611.524 12.8333 611.39 13.5167 611.39 14.35V21H607.49V7.55H611.215V11.275L610.515 10.15C610.999 9.25 611.69 8.55833 612.59 8.075C613.49 7.59167 614.515 7.35 615.665 7.35ZM629.301 21.2C628.151 21.2 627.042 21.0667 625.976 20.8C624.926 20.5167 624.092 20.1667 623.476 19.75L624.776 16.95C625.392 17.3333 626.117 17.65 626.951 17.9C627.801 18.1333 628.634 18.25 629.451 18.25C630.351 18.25 630.984 18.1417 631.351 17.925C631.734 17.7083 631.926 17.4083 631.926 17.025C631.926 16.7083 631.776 16.475 631.476 16.325C631.192 16.1583 630.809 16.0333 630.326 15.95C629.842 15.8667 629.309 15.7833 628.726 15.7C628.159 15.6167 627.584 15.5083 627.001 15.375C626.417 15.225 625.884 15.0083 625.401 14.725C624.917 14.4417 624.526 14.0583 624.226 13.575C623.942 13.0917 623.801 12.4667 623.801 11.7C623.801 10.85 624.042 10.1 624.526 9.45C625.026 8.8 625.742 8.29167 626.676 7.925C627.609 7.54167 628.726 7.35 630.026 7.35C630.942 7.35 631.876 7.45 632.826 7.65C633.776 7.85 634.567 8.14167 635.201 8.525L633.901 11.3C633.251 10.9167 632.592 10.6583 631.926 10.525C631.276 10.375 630.642 10.3 630.026 10.3C629.159 10.3 628.526 10.4167 628.126 10.65C627.726 10.8833 627.526 11.1833 627.526 11.55C627.526 11.8833 627.667 12.1333 627.951 12.3C628.251 12.4667 628.642 12.6 629.126 12.7C629.609 12.8 630.134 12.8917 630.701 12.975C631.284 13.0417 631.867 13.15 632.451 13.3C633.034 13.45 633.559 13.6667 634.026 13.95C634.509 14.2167 634.901 14.5917 635.201 15.075C635.501 15.5417 635.651 16.1583 635.651 16.925C635.651 17.7583 635.401 18.5 634.901 19.15C634.401 19.7833 633.676 20.2833 632.726 20.65C631.792 21.0167 630.651 21.2 629.301 21.2Z" fill="#5A7BBD"/>
<path d="M722.958 261.84H681.26V500.365H722.958V261.84Z" fill="#465348"/>
<path d="M784.725 261.84H722.958V500.365H784.725V261.84Z" fill="#8E9F8F"/>
<path d="M681.26 261.84L723.296 316.582L784.725 261.84H681.26Z" fill="#C7D0C8"/>
<path d="M722.904 500.374H681.26L722.958 542.221L722.904 500.374Z" fill="#465348"/>
<path d="M722.958 500.374H784.725L722.958 542.221V500.374Z" fill="#8E9F8F"/>
<path d="M679.825 247V244.375L686.575 238C687.108 237.517 687.5 237.083 687.75 236.7C688 236.317 688.167 235.967 688.25 235.65C688.35 235.333 688.4 235.042 688.4 234.775C688.4 234.075 688.158 233.542 687.675 233.175C687.208 232.792 686.517 232.6 685.6 232.6C684.867 232.6 684.183 232.742 683.55 233.025C682.933 233.308 682.408 233.75 681.975 234.35L679.025 232.45C679.692 231.45 680.625 230.658 681.825 230.075C683.025 229.492 684.408 229.2 685.975 229.2C687.275 229.2 688.408 229.417 689.375 229.85C690.358 230.267 691.117 230.858 691.65 231.625C692.2 232.392 692.475 233.308 692.475 234.375C692.475 234.942 692.4 235.508 692.25 236.075C692.117 236.625 691.833 237.208 691.4 237.825C690.983 238.442 690.367 239.133 689.55 239.9L683.95 245.175L683.175 243.7H693.05V247H679.825ZM700.671 247.3C699.454 247.3 698.246 247.142 697.046 246.825C695.863 246.492 694.846 246.025 693.996 245.425L695.596 242.325C696.263 242.808 697.029 243.192 697.896 243.475C698.779 243.758 699.671 243.9 700.571 243.9C701.588 243.9 702.388 243.7 702.971 243.3C703.554 242.9 703.846 242.342 703.846 241.625C703.846 241.175 703.729 240.775 703.496 240.425C703.263 240.075 702.846 239.808 702.246 239.625C701.663 239.442 700.838 239.35 699.771 239.35H695.296L696.196 229.5H706.871V232.75H697.646L699.746 230.9L699.121 237.925L697.021 236.075H700.721C702.454 236.075 703.846 236.317 704.896 236.8C705.963 237.267 706.738 237.908 707.221 238.725C707.704 239.542 707.946 240.467 707.946 241.5C707.946 242.533 707.688 243.492 707.171 244.375C706.654 245.242 705.854 245.95 704.771 246.5C703.704 247.033 702.338 247.3 700.671 247.3ZM715.142 247.3C713.926 247.3 712.717 247.142 711.517 246.825C710.317 246.492 709.301 246.025 708.467 245.425L710.042 242.325C710.709 242.808 711.484 243.192 712.367 243.475C713.251 243.758 714.142 243.9 715.042 243.9C716.059 243.9 716.859 243.7 717.442 243.3C718.026 242.9 718.317 242.35 718.317 241.65C718.317 240.983 718.059 240.458 717.542 240.075C717.026 239.692 716.192 239.5 715.042 239.5H713.192V236.825L718.067 231.3L718.517 232.75H709.342V229.5H721.592V232.125L716.742 237.65L714.692 236.475H715.867C718.017 236.475 719.642 236.958 720.742 237.925C721.842 238.892 722.392 240.133 722.392 241.65C722.392 242.633 722.134 243.558 721.617 244.425C721.101 245.275 720.309 245.967 719.242 246.5C718.176 247.033 716.809 247.3 715.142 247.3ZM737.667 247.2C736.084 247.2 734.851 246.8 733.967 246C733.084 245.183 732.642 243.975 732.642 242.375V230.575H736.542V242.325C736.542 242.892 736.692 243.333 736.992 243.65C737.292 243.95 737.701 244.1 738.217 244.1C738.834 244.1 739.359 243.933 739.792 243.6L740.842 246.35C740.442 246.633 739.959 246.85 739.392 247C738.842 247.133 738.267 247.2 737.667 247.2ZM730.567 236.85V233.85H739.892V236.85H730.567ZM749.016 247.2C747.583 247.2 746.308 246.9 745.191 246.3C744.091 245.7 743.216 244.883 742.566 243.85C741.933 242.8 741.616 241.608 741.616 240.275C741.616 238.925 741.933 237.733 742.566 236.7C743.216 235.65 744.091 234.833 745.191 234.25C746.308 233.65 747.583 233.35 749.016 233.35C750.433 233.35 751.7 233.65 752.816 234.25C753.933 234.833 754.808 235.642 755.441 236.675C756.075 237.708 756.391 238.908 756.391 240.275C756.391 241.608 756.075 242.8 755.441 243.85C754.808 244.883 753.933 245.7 752.816 246.3C751.7 246.9 750.433 247.2 749.016 247.2ZM749.016 244C749.666 244 750.25 243.85 750.766 243.55C751.283 243.25 751.691 242.825 751.991 242.275C752.291 241.708 752.441 241.042 752.441 240.275C752.441 239.492 752.291 238.825 751.991 238.275C751.691 237.725 751.283 237.3 750.766 237C750.25 236.7 749.666 236.55 749.016 236.55C748.366 236.55 747.783 236.7 747.266 237C746.75 237.3 746.333 237.725 746.016 238.275C745.716 238.825 745.566 239.492 745.566 240.275C745.566 241.042 745.716 241.708 746.016 242.275C746.333 242.825 746.75 243.25 747.266 243.55C747.783 243.85 748.366 244 749.016 244ZM767.173 233.35C768.24 233.35 769.19 233.567 770.023 234C770.873 234.417 771.54 235.067 772.023 235.95C772.507 236.817 772.748 237.933 772.748 239.3V247H768.848V239.9C768.848 238.817 768.607 238.017 768.123 237.5C767.657 236.983 766.99 236.725 766.123 236.725C765.507 236.725 764.948 236.858 764.448 237.125C763.965 237.375 763.582 237.767 763.298 238.3C763.032 238.833 762.898 239.517 762.898 240.35V247H758.998V233.55H762.723V237.275L762.023 236.15C762.507 235.25 763.198 234.558 764.098 234.075C764.998 233.592 766.023 233.35 767.173 233.35ZM780.808 247.2C779.658 247.2 778.55 247.067 777.483 246.8C776.433 246.517 775.6 246.167 774.983 245.75L776.283 242.95C776.9 243.333 777.625 243.65 778.458 243.9C779.308 244.133 780.142 244.25 780.958 244.25C781.858 244.25 782.492 244.142 782.858 243.925C783.242 243.708 783.433 243.408 783.433 243.025C783.433 242.708 783.283 242.475 782.983 242.325C782.7 242.158 782.317 242.033 781.833 241.95C781.35 241.867 780.817 241.783 780.233 241.7C779.667 241.617 779.092 241.508 778.508 241.375C777.925 241.225 777.392 241.008 776.908 240.725C776.425 240.442 776.033 240.058 775.733 239.575C775.45 239.092 775.308 238.467 775.308 237.7C775.308 236.85 775.55 236.1 776.033 235.45C776.533 234.8 777.25 234.292 778.183 233.925C779.117 233.542 780.233 233.35 781.533 233.35C782.45 233.35 783.383 233.45 784.333 233.65C785.283 233.85 786.075 234.142 786.708 234.525L785.408 237.3C784.758 236.917 784.1 236.658 783.433 236.525C782.783 236.375 782.15 236.3 781.533 236.3C780.667 236.3 780.033 236.417 779.633 236.65C779.233 236.883 779.033 237.183 779.033 237.55C779.033 237.883 779.175 238.133 779.458 238.3C779.758 238.467 780.15 238.6 780.633 238.7C781.117 238.8 781.642 238.892 782.208 238.975C782.792 239.042 783.375 239.15 783.958 239.3C784.542 239.45 785.067 239.667 785.533 239.95C786.017 240.217 786.408 240.592 786.708 241.075C787.008 241.542 787.158 242.158 787.158 242.925C787.158 243.758 786.908 244.5 786.408 245.15C785.908 245.783 785.183 246.283 784.233 246.65C783.3 247.017 782.158 247.2 780.808 247.2Z" fill="#5A7BBD"/>
<path d="M906.024 113.233H866.506V341.647H906.024V113.233Z" fill="#465348"/>
<path d="M964.562 113.233H906.024V341.647H964.562V113.233Z" fill="#8E9F8F"/>
<path d="M866.506 113.233L906.343 165.656L964.553 113.233H866.506Z" fill="#C7D0C8"/>
<path d="M905.969 341.647H866.506L906.024 381.727L905.969 341.647Z" fill="#465348"/>
<path d="M906.024 341.647H964.553L906.024 381.727V341.647Z" fill="#8E9F8F"/>
<path d="M864.825 96V93.375L871.575 87C872.108 86.5167 872.5 86.0833 872.75 85.7C873 85.3167 873.167 84.9667 873.25 84.65C873.35 84.3333 873.4 84.0417 873.4 83.775C873.4 83.075 873.158 82.5417 872.675 82.175C872.208 81.7917 871.517 81.6 870.6 81.6C869.867 81.6 869.183 81.7417 868.55 82.025C867.933 82.3083 867.408 82.75 866.975 83.35L864.025 81.45C864.692 80.45 865.625 79.6583 866.825 79.075C868.025 78.4917 869.408 78.2 870.975 78.2C872.275 78.2 873.408 78.4167 874.375 78.85C875.358 79.2667 876.117 79.8583 876.65 80.625C877.2 81.3917 877.475 82.3083 877.475 83.375C877.475 83.9417 877.4 84.5083 877.25 85.075C877.117 85.625 876.833 86.2083 876.4 86.825C875.983 87.4417 875.367 88.1333 874.55 88.9L868.95 94.175L868.175 92.7H878.05V96H864.825ZM885.671 96.3C884.454 96.3 883.246 96.1417 882.046 95.825C880.863 95.4917 879.846 95.025 878.996 94.425L880.596 91.325C881.263 91.8083 882.029 92.1917 882.896 92.475C883.779 92.7583 884.671 92.9 885.571 92.9C886.588 92.9 887.388 92.7 887.971 92.3C888.554 91.9 888.846 91.3417 888.846 90.625C888.846 90.175 888.729 89.775 888.496 89.425C888.263 89.075 887.846 88.8083 887.246 88.625C886.663 88.4417 885.838 88.35 884.771 88.35H880.296L881.196 78.5H891.871V81.75H882.646L884.746 79.9L884.121 86.925L882.021 85.075H885.721C887.454 85.075 888.846 85.3167 889.896 85.8C890.963 86.2667 891.738 86.9083 892.221 87.725C892.704 88.5417 892.946 89.4667 892.946 90.5C892.946 91.5333 892.688 92.4917 892.171 93.375C891.654 94.2417 890.854 94.95 889.771 95.5C888.704 96.0333 887.338 96.3 885.671 96.3ZM897.289 96V80L899.039 81.75H893.789V78.5H901.339V96H897.289ZM917.784 96.2C916.201 96.2 914.968 95.8 914.084 95C913.201 94.1833 912.759 92.975 912.759 91.375V79.575H916.659V91.325C916.659 91.8917 916.809 92.3333 917.109 92.65C917.409 92.95 917.818 93.1 918.334 93.1C918.951 93.1 919.476 92.9333 919.909 92.6L920.959 95.35C920.559 95.6333 920.076 95.85 919.509 96C918.959 96.1333 918.384 96.2 917.784 96.2ZM910.684 85.85V82.85H920.009V85.85H910.684ZM929.134 96.2C927.7 96.2 926.425 95.9 925.309 95.3C924.209 94.7 923.334 93.8833 922.684 92.85C922.05 91.8 921.734 90.6083 921.734 89.275C921.734 87.925 922.05 86.7333 922.684 85.7C923.334 84.65 924.209 83.8333 925.309 83.25C926.425 82.65 927.7 82.35 929.134 82.35C930.55 82.35 931.817 82.65 932.934 83.25C934.05 83.8333 934.925 84.6417 935.559 85.675C936.192 86.7083 936.509 87.9083 936.509 89.275C936.509 90.6083 936.192 91.8 935.559 92.85C934.925 93.8833 934.05 94.7 932.934 95.3C931.817 95.9 930.55 96.2 929.134 96.2ZM929.134 93C929.784 93 930.367 92.85 930.884 92.55C931.4 92.25 931.809 91.825 932.109 91.275C932.409 90.7083 932.559 90.0417 932.559 89.275C932.559 88.4917 932.409 87.825 932.109 87.275C931.809 86.725 931.4 86.3 930.884 86C930.367 85.7 929.784 85.55 929.134 85.55C928.484 85.55 927.9 85.7 927.384 86C926.867 86.3 926.45 86.725 926.134 87.275C925.834 87.825 925.684 88.4917 925.684 89.275C925.684 90.0417 925.834 90.7083 926.134 91.275C926.45 91.825 926.867 92.25 927.384 92.55C927.9 92.85 928.484 93 929.134 93ZM947.29 82.35C948.357 82.35 949.307 82.5667 950.14 83C950.99 83.4167 951.657 84.0667 952.14 84.95C952.624 85.8167 952.865 86.9333 952.865 88.3V96H948.965V88.9C948.965 87.8167 948.724 87.0167 948.24 86.5C947.774 85.9833 947.107 85.725 946.24 85.725C945.624 85.725 945.065 85.8583 944.565 86.125C944.082 86.375 943.699 86.7667 943.415 87.3C943.149 87.8333 943.015 88.5167 943.015 89.35V96H939.115V82.55H942.84V86.275L942.14 85.15C942.624 84.25 943.315 83.5583 944.215 83.075C945.115 82.5917 946.14 82.35 947.29 82.35ZM960.926 96.2C959.776 96.2 958.667 96.0667 957.601 95.8C956.551 95.5167 955.717 95.1667 955.101 94.75L956.401 91.95C957.017 92.3333 957.742 92.65 958.576 92.9C959.426 93.1333 960.259 93.25 961.076 93.25C961.976 93.25 962.609 93.1417 962.976 92.925C963.359 92.7083 963.551 92.4083 963.551 92.025C963.551 91.7083 963.401 91.475 963.101 91.325C962.817 91.1583 962.434 91.0333 961.951 90.95C961.467 90.8667 960.934 90.7833 960.351 90.7C959.784 90.6167 959.209 90.5083 958.626 90.375C958.042 90.225 957.509 90.0083 957.026 89.725C956.542 89.4417 956.151 89.0583 955.851 88.575C955.567 88.0917 955.426 87.4667 955.426 86.7C955.426 85.85 955.667 85.1 956.151 84.45C956.651 83.8 957.367 83.2917 958.301 82.925C959.234 82.5417 960.351 82.35 961.651 82.35C962.567 82.35 963.501 82.45 964.451 82.65C965.401 82.85 966.192 83.1417 966.826 83.525L965.526 86.3C964.876 85.9167 964.217 85.6583 963.551 85.525C962.901 85.375 962.267 85.3 961.651 85.3C960.784 85.3 960.151 85.4167 959.751 85.65C959.351 85.8833 959.151 86.1833 959.151 86.55C959.151 86.8833 959.292 87.1333 959.576 87.3C959.876 87.4667 960.267 87.6 960.751 87.7C961.234 87.8 961.759 87.8917 962.326 87.975C962.909 88.0417 963.492 88.15 964.076 88.3C964.659 88.45 965.184 88.6667 965.651 88.95C966.134 89.2167 966.526 89.5917 966.826 90.075C967.126 90.5417 967.276 91.1583 967.276 91.925C967.276 92.7583 967.026 93.5 966.526 94.15C966.026 94.7833 965.301 95.2833 964.351 95.65C963.417 96.0167 962.276 96.2 960.926 96.2Z" fill="#5A7BBD"/>
<path d="M60.068 228.144C59.38 228.144 58.764 227.976 58.22 227.64C57.676 227.296 57.248 226.8 56.936 226.152C56.624 225.504 56.468 224.72 56.468 223.8C56.468 222.88 56.624 222.096 56.936 221.448C57.248 220.8 57.676 220.308 58.22 219.972C58.764 219.628 59.38 219.456 60.068 219.456C60.764 219.456 61.38 219.628 61.916 219.972C62.46 220.308 62.888 220.8 63.2 221.448C63.512 222.096 63.668 222.88 63.668 223.8C63.668 224.72 63.512 225.504 63.2 226.152C62.888 226.8 62.46 227.296 61.916 227.64C61.38 227.976 60.764 228.144 60.068 228.144ZM60.068 226.5C60.396 226.5 60.68 226.408 60.92 226.224C61.168 226.04 61.36 225.748 61.496 225.348C61.64 224.948 61.712 224.432 61.712 223.8C61.712 223.168 61.64 222.652 61.496 222.252C61.36 221.852 61.168 221.56 60.92 221.376C60.68 221.192 60.396 221.1 60.068 221.1C59.748 221.1 59.464 221.192 59.216 221.376C58.976 221.56 58.784 221.852 58.64 222.252C58.504 222.652 58.436 223.168 58.436 223.8C58.436 224.432 58.504 224.948 58.64 225.348C58.784 225.748 58.976 226.04 59.216 226.224C59.464 226.408 59.748 226.5 60.068 226.5ZM64.8037 225.372V223.872H68.1997V225.372H64.8037ZM70.3148 228V220.32L71.1548 221.16H68.6348V219.6H72.2588V228H70.3148ZM77.318 228.144C76.63 228.144 76.014 227.976 75.47 227.64C74.926 227.296 74.498 226.8 74.186 226.152C73.874 225.504 73.718 224.72 73.718 223.8C73.718 222.88 73.874 222.096 74.186 221.448C74.498 220.8 74.926 220.308 75.47 219.972C76.014 219.628 76.63 219.456 77.318 219.456C78.014 219.456 78.63 219.628 79.166 219.972C79.71 220.308 80.138 220.8 80.45 221.448C80.762 222.096 80.918 222.88 80.918 223.8C80.918 224.72 80.762 225.504 80.45 226.152C80.138 226.8 79.71 227.296 79.166 227.64C78.63 227.976 78.014 228.144 77.318 228.144ZM77.318 226.5C77.646 226.5 77.93 226.408 78.17 226.224C78.418 226.04 78.61 225.748 78.746 225.348C78.89 224.948 78.962 224.432 78.962 223.8C78.962 223.168 78.89 222.652 78.746 222.252C78.61 221.852 78.418 221.56 78.17 221.376C77.93 221.192 77.646 221.1 77.318 221.1C76.998 221.1 76.714 221.192 76.466 221.376C76.226 221.56 76.034 221.852 75.89 222.252C75.754 222.652 75.686 223.168 75.686 223.8C75.686 224.432 75.754 224.948 75.89 225.348C76.034 225.748 76.226 226.04 76.466 226.224C76.714 226.408 76.998 226.5 77.318 226.5ZM89.617 228V226.74L89.497 226.464V224.208C89.497 223.808 89.373 223.496 89.125 223.272C88.885 223.048 88.513 222.936 88.009 222.936C87.665 222.936 87.325 222.992 86.989 223.104C86.661 223.208 86.381 223.352 86.149 223.536L85.477 222.228C85.829 221.98 86.253 221.788 86.749 221.652C87.245 221.516 87.749 221.448 88.261 221.448C89.245 221.448 90.009 221.68 90.553 222.144C91.097 222.608 91.369 223.332 91.369 224.316V228H89.617ZM87.649 228.096C87.145 228.096 86.713 228.012 86.353 227.844C85.993 227.668 85.717 227.432 85.525 227.136C85.333 226.84 85.237 226.508 85.237 226.14C85.237 225.756 85.329 225.42 85.513 225.132C85.705 224.844 86.005 224.62 86.413 224.46C86.821 224.292 87.353 224.208 88.009 224.208H89.725V225.3H88.213C87.773 225.3 87.469 225.372 87.301 225.516C87.141 225.66 87.061 225.84 87.061 226.056C87.061 226.296 87.153 226.488 87.337 226.632C87.529 226.768 87.789 226.836 88.117 226.836C88.429 226.836 88.709 226.764 88.957 226.62C89.205 226.468 89.385 226.248 89.497 225.96L89.785 226.824C89.649 227.24 89.401 227.556 89.041 227.772C88.681 227.988 88.217 228.096 87.649 228.096ZM88.441 220.896C88.169 220.896 87.917 220.832 87.685 220.704C87.461 220.568 87.285 220.392 87.157 220.176C87.029 219.96 86.965 219.716 86.965 219.444C86.965 219.18 87.029 218.94 87.157 218.724C87.285 218.5 87.461 218.324 87.685 218.196C87.917 218.06 88.169 217.992 88.441 217.992C88.729 217.992 88.985 218.06 89.209 218.196C89.433 218.324 89.609 218.5 89.737 218.724C89.873 218.94 89.941 219.18 89.941 219.444C89.941 219.716 89.873 219.96 89.737 220.176C89.609 220.392 89.433 220.568 89.209 220.704C88.985 220.832 88.729 220.896 88.441 220.896ZM88.453 220.176C88.661 220.176 88.833 220.108 88.969 219.972C89.105 219.836 89.173 219.664 89.173 219.456C89.173 219.24 89.105 219.064 88.969 218.928C88.833 218.784 88.657 218.712 88.441 218.712C88.241 218.712 88.069 218.78 87.925 218.916C87.789 219.052 87.721 219.228 87.721 219.444C87.721 219.66 87.789 219.836 87.925 219.972C88.069 220.108 88.245 220.176 88.453 220.176ZM93.0632 228V221.544H94.8512V223.368L94.5992 222.84C94.7912 222.384 95.0992 222.04 95.5232 221.808C95.9472 221.568 96.4632 221.448 97.0712 221.448V223.176C96.9912 223.168 96.9192 223.164 96.8552 223.164C96.7912 223.156 96.7232 223.152 96.6512 223.152C96.1392 223.152 95.7232 223.3 95.4032 223.596C95.0912 223.884 94.9352 224.336 94.9352 224.952V228H93.0632Z" fill="#231F20"/>
<path d="M191.764 78.011V70.331L192.604 71.171H190.084V69.611H193.708V78.011H191.764ZM198.767 78.155C198.079 78.155 197.463 77.987 196.919 77.651C196.375 77.307 195.947 76.811 195.635 76.163C195.323 75.515 195.167 74.731 195.167 73.811C195.167 72.891 195.323 72.107 195.635 71.459C195.947 70.811 196.375 70.319 196.919 69.983C197.463 69.639 198.079 69.467 198.767 69.467C199.463 69.467 200.079 69.639 200.615 69.983C201.159 70.319 201.587 70.811 201.899 71.459C202.211 72.107 202.367 72.891 202.367 73.811C202.367 74.731 202.211 75.515 201.899 76.163C201.587 76.811 201.159 77.307 200.615 77.651C200.079 77.987 199.463 78.155 198.767 78.155ZM198.767 76.511C199.095 76.511 199.379 76.419 199.619 76.235C199.867 76.051 200.059 75.759 200.195 75.359C200.339 74.959 200.411 74.443 200.411 73.811C200.411 73.179 200.339 72.663 200.195 72.263C200.059 71.863 199.867 71.571 199.619 71.387C199.379 71.203 199.095 71.111 198.767 71.111C198.447 71.111 198.163 71.203 197.915 71.387C197.675 71.571 197.483 71.863 197.339 72.263C197.203 72.663 197.135 73.179 197.135 73.811C197.135 74.443 197.203 74.959 197.339 75.359C197.483 75.759 197.675 76.051 197.915 76.235C198.163 76.419 198.447 76.511 198.767 76.511ZM203.503 75.383V73.883H206.899V75.383H203.503ZM207.705 78.011V76.751L210.945 73.691C211.201 73.459 211.389 73.251 211.509 73.067C211.629 72.883 211.709 72.715 211.749 72.563C211.797 72.411 211.821 72.271 211.821 72.143C211.821 71.807 211.705 71.551 211.473 71.375C211.249 71.191 210.917 71.099 210.477 71.099C210.125 71.099 209.797 71.167 209.493 71.303C209.197 71.439 208.945 71.651 208.737 71.939L207.321 71.027C207.641 70.547 208.089 70.167 208.665 69.887C209.241 69.607 209.905 69.467 210.657 69.467C211.281 69.467 211.825 69.571 212.289 69.779C212.761 69.979 213.125 70.263 213.381 70.631C213.645 70.999 213.777 71.439 213.777 71.951C213.777 72.223 213.741 72.495 213.669 72.767C213.605 73.031 213.469 73.311 213.261 73.607C213.061 73.903 212.765 74.235 212.373 74.603L209.685 77.135L209.313 76.427H214.053V78.011H207.705ZM218.455 78.155C217.767 78.155 217.151 77.987 216.607 77.651C216.063 77.307 215.635 76.811 215.323 76.163C215.011 75.515 214.855 74.731 214.855 73.811C214.855 72.891 215.011 72.107 215.323 71.459C215.635 70.811 216.063 70.319 216.607 69.983C217.151 69.639 217.767 69.467 218.455 69.467C219.151 69.467 219.767 69.639 220.303 69.983C220.847 70.319 221.275 70.811 221.587 71.459C221.899 72.107 222.055 72.891 222.055 73.811C222.055 74.731 221.899 75.515 221.587 76.163C221.275 76.811 220.847 77.307 220.303 77.651C219.767 77.987 219.151 78.155 218.455 78.155ZM218.455 76.511C218.783 76.511 219.067 76.419 219.307 76.235C219.555 76.051 219.747 75.759 219.883 75.359C220.027 74.959 220.099 74.443 220.099 73.811C220.099 73.179 220.027 72.663 219.883 72.263C219.747 71.863 219.555 71.571 219.307 71.387C219.067 71.203 218.783 71.111 218.455 71.111C218.135 71.111 217.851 71.203 217.603 71.387C217.363 71.571 217.171 71.863 217.027 72.263C216.891 72.663 216.823 73.179 216.823 73.811C216.823 74.443 216.891 74.959 217.027 75.359C217.171 75.759 217.363 76.051 217.603 76.235C217.851 76.419 218.135 76.511 218.455 76.511ZM230.754 78.011V76.751L230.634 76.475V74.219C230.634 73.819 230.51 73.507 230.262 73.283C230.022 73.059 229.65 72.947 229.146 72.947C228.802 72.947 228.462 73.003 228.126 73.115C227.798 73.219 227.518 73.363 227.286 73.547L226.614 72.239C226.966 71.991 227.39 71.799 227.886 71.663C228.382 71.527 228.886 71.459 229.398 71.459C230.382 71.459 231.146 71.691 231.69 72.155C232.234 72.619 232.506 73.343 232.506 74.327V78.011H230.754ZM228.786 78.107C228.282 78.107 227.85 78.023 227.49 77.855C227.13 77.679 226.854 77.443 226.662 77.147C226.47 76.851 226.374 76.519 226.374 76.151C226.374 75.767 226.466 75.431 226.65 75.143C226.842 74.855 227.142 74.631 227.55 74.471C227.958 74.303 228.49 74.219 229.146 74.219H230.862V75.311H229.35C228.91 75.311 228.606 75.383 228.438 75.527C228.278 75.671 228.198 75.851 228.198 76.067C228.198 76.307 228.29 76.499 228.474 76.643C228.666 76.779 228.926 76.847 229.254 76.847C229.566 76.847 229.846 76.775 230.094 76.631C230.342 76.479 230.522 76.259 230.634 75.971L230.922 76.835C230.786 77.251 230.538 77.567 230.178 77.783C229.818 77.999 229.354 78.107 228.786 78.107ZM229.578 70.907C229.306 70.907 229.054 70.843 228.822 70.715C228.598 70.579 228.422 70.403 228.294 70.187C228.166 69.971 228.102 69.727 228.102 69.455C228.102 69.191 228.166 68.951 228.294 68.735C228.422 68.511 228.598 68.335 228.822 68.207C229.054 68.071 229.306 68.003 229.578 68.003C229.866 68.003 230.122 68.071 230.346 68.207C230.57 68.335 230.746 68.511 230.874 68.735C231.01 68.951 231.078 69.191 231.078 69.455C231.078 69.727 231.01 69.971 230.874 70.187C230.746 70.403 230.57 70.579 230.346 70.715C230.122 70.843 229.866 70.907 229.578 70.907ZM229.59 70.187C229.798 70.187 229.97 70.119 230.106 69.983C230.242 69.847 230.31 69.675 230.31 69.467C230.31 69.251 230.242 69.075 230.106 68.939C229.97 68.795 229.794 68.723 229.578 68.723C229.378 68.723 229.206 68.791 229.062 68.927C228.926 69.063 228.858 69.239 228.858 69.455C228.858 69.671 228.926 69.847 229.062 69.983C229.206 70.119 229.382 70.187 229.59 70.187ZM234.2 78.011V71.555H235.988V73.379L235.736 72.851C235.928 72.395 236.236 72.051 236.66 71.819C237.084 71.579 237.6 71.459 238.208 71.459V73.187C238.128 73.179 238.056 73.175 237.992 73.175C237.928 73.167 237.86 73.163 237.788 73.163C237.276 73.163 236.86 73.311 236.54 73.607C236.228 73.895 236.072 74.347 236.072 74.963V78.011H234.2Z" fill="#231F20"/>
<path d="M353.396 180.064V178.804L356.636 175.744C356.892 175.512 357.08 175.304 357.2 175.12C357.32 174.936 357.4 174.768 357.44 174.616C357.488 174.464 357.512 174.324 357.512 174.196C357.512 173.86 357.396 173.604 357.164 173.428C356.94 173.244 356.608 173.152 356.168 173.152C355.816 173.152 355.488 173.22 355.184 173.356C354.888 173.492 354.636 173.704 354.428 173.992L353.012 173.08C353.332 172.6 353.78 172.22 354.356 171.94C354.932 171.66 355.596 171.52 356.348 171.52C356.972 171.52 357.516 171.624 357.98 171.832C358.452 172.032 358.816 172.316 359.072 172.684C359.336 173.052 359.468 173.492 359.468 174.004C359.468 174.276 359.432 174.548 359.36 174.82C359.296 175.084 359.16 175.364 358.952 175.66C358.752 175.956 358.456 176.288 358.064 176.656L355.376 179.188L355.004 178.48H359.744V180.064H353.396ZM364.146 180.208C363.458 180.208 362.842 180.04 362.298 179.704C361.754 179.36 361.326 178.864 361.014 178.216C360.702 177.568 360.546 176.784 360.546 175.864C360.546 174.944 360.702 174.16 361.014 173.512C361.326 172.864 361.754 172.372 362.298 172.036C362.842 171.692 363.458 171.52 364.146 171.52C364.842 171.52 365.458 171.692 365.994 172.036C366.538 172.372 366.966 172.864 367.278 173.512C367.59 174.16 367.746 174.944 367.746 175.864C367.746 176.784 367.59 177.568 367.278 178.216C366.966 178.864 366.538 179.36 365.994 179.704C365.458 180.04 364.842 180.208 364.146 180.208ZM364.146 178.564C364.474 178.564 364.758 178.472 364.998 178.288C365.246 178.104 365.438 177.812 365.574 177.412C365.718 177.012 365.79 176.496 365.79 175.864C365.79 175.232 365.718 174.716 365.574 174.316C365.438 173.916 365.246 173.624 364.998 173.44C364.758 173.256 364.474 173.164 364.146 173.164C363.826 173.164 363.542 173.256 363.294 173.44C363.054 173.624 362.862 173.916 362.718 174.316C362.582 174.716 362.514 175.232 362.514 175.864C362.514 176.496 362.582 177.012 362.718 177.412C362.862 177.812 363.054 178.104 363.294 178.288C363.542 178.472 363.826 178.564 364.146 178.564ZM368.882 177.436V175.936H372.278V177.436H368.882ZM375.844 180.208C375.26 180.208 374.68 180.132 374.104 179.98C373.528 179.82 373.04 179.596 372.64 179.308L373.396 177.82C373.716 178.052 374.088 178.236 374.512 178.372C374.936 178.508 375.364 178.576 375.796 178.576C376.284 178.576 376.668 178.48 376.948 178.288C377.228 178.096 377.368 177.832 377.368 177.496C377.368 177.176 377.244 176.924 376.996 176.74C376.748 176.556 376.348 176.464 375.796 176.464H374.908V175.18L377.248 172.528L377.464 173.224H373.06V171.664H378.94V172.924L376.612 175.576L375.628 175.012H376.192C377.224 175.012 378.004 175.244 378.532 175.708C379.06 176.172 379.324 176.768 379.324 177.496C379.324 177.968 379.2 178.412 378.952 178.828C378.704 179.236 378.324 179.568 377.812 179.824C377.3 180.08 376.644 180.208 375.844 180.208ZM383.822 180.208C383.134 180.208 382.518 180.04 381.974 179.704C381.43 179.36 381.002 178.864 380.69 178.216C380.378 177.568 380.222 176.784 380.222 175.864C380.222 174.944 380.378 174.16 380.69 173.512C381.002 172.864 381.43 172.372 381.974 172.036C382.518 171.692 383.134 171.52 383.822 171.52C384.518 171.52 385.134 171.692 385.67 172.036C386.214 172.372 386.642 172.864 386.954 173.512C387.266 174.16 387.422 174.944 387.422 175.864C387.422 176.784 387.266 177.568 386.954 178.216C386.642 178.864 386.214 179.36 385.67 179.704C385.134 180.04 384.518 180.208 383.822 180.208ZM383.822 178.564C384.15 178.564 384.434 178.472 384.674 178.288C384.922 178.104 385.114 177.812 385.25 177.412C385.394 177.012 385.466 176.496 385.466 175.864C385.466 175.232 385.394 174.716 385.25 174.316C385.114 173.916 384.922 173.624 384.674 173.44C384.434 173.256 384.15 173.164 383.822 173.164C383.502 173.164 383.218 173.256 382.97 173.44C382.73 173.624 382.538 173.916 382.394 174.316C382.258 174.716 382.19 175.232 382.19 175.864C382.19 176.496 382.258 177.012 382.394 177.412C382.538 177.812 382.73 178.104 382.97 178.288C383.218 178.472 383.502 178.564 383.822 178.564ZM396.121 180.064V178.804L396.001 178.528V176.272C396.001 175.872 395.877 175.56 395.629 175.336C395.389 175.112 395.017 175 394.513 175C394.169 175 393.829 175.056 393.493 175.168C393.165 175.272 392.885 175.416 392.653 175.6L391.981 174.292C392.333 174.044 392.757 173.852 393.253 173.716C393.749 173.58 394.253 173.512 394.765 173.512C395.749 173.512 396.513 173.744 397.057 174.208C397.601 174.672 397.873 175.396 397.873 176.38V180.064H396.121ZM394.153 180.16C393.649 180.16 393.217 180.076 392.857 179.908C392.497 179.732 392.221 179.496 392.029 179.2C391.837 178.904 391.741 178.572 391.741 178.204C391.741 177.82 391.833 177.484 392.017 177.196C392.209 176.908 392.509 176.684 392.917 176.524C393.325 176.356 393.857 176.272 394.513 176.272H396.229V177.364H394.717C394.277 177.364 393.973 177.436 393.805 177.58C393.645 177.724 393.565 177.904 393.565 178.12C393.565 178.36 393.657 178.552 393.841 178.696C394.033 178.832 394.293 178.9 394.621 178.9C394.933 178.9 395.213 178.828 395.461 178.684C395.709 178.532 395.889 178.312 396.001 178.024L396.289 178.888C396.153 179.304 395.905 179.62 395.545 179.836C395.185 180.052 394.721 180.16 394.153 180.16ZM394.945 172.96C394.673 172.96 394.421 172.896 394.189 172.768C393.965 172.632 393.789 172.456 393.661 172.24C393.533 172.024 393.469 171.78 393.469 171.508C393.469 171.244 393.533 171.004 393.661 170.788C393.789 170.564 393.965 170.388 394.189 170.26C394.421 170.124 394.673 170.056 394.945 170.056C395.233 170.056 395.489 170.124 395.713 170.26C395.937 170.388 396.113 170.564 396.241 170.788C396.377 171.004 396.445 171.244 396.445 171.508C396.445 171.78 396.377 172.024 396.241 172.24C396.113 172.456 395.937 172.632 395.713 172.768C395.489 172.896 395.233 172.96 394.945 172.96ZM394.957 172.24C395.165 172.24 395.337 172.172 395.473 172.036C395.609 171.9 395.677 171.728 395.677 171.52C395.677 171.304 395.609 171.128 395.473 170.992C395.337 170.848 395.161 170.776 394.945 170.776C394.745 170.776 394.573 170.844 394.429 170.98C394.293 171.116 394.225 171.292 394.225 171.508C394.225 171.724 394.293 171.9 394.429 172.036C394.573 172.172 394.749 172.24 394.957 172.24ZM399.567 180.064V173.608H401.355V175.432L401.103 174.904C401.295 174.448 401.603 174.104 402.027 173.872C402.451 173.632 402.967 173.512 403.575 173.512V175.24C403.495 175.232 403.423 175.228 403.359 175.228C403.295 175.22 403.227 175.216 403.155 175.216C402.643 175.216 402.227 175.364 401.907 175.66C401.595 175.948 401.439 176.4 401.439 177.016V180.064H399.567Z" fill="#231F20"/>
<path d="M556.192 33.297C555.608 33.297 555.028 33.221 554.452 33.069C553.876 32.909 553.388 32.685 552.988 32.397L553.744 30.909C554.064 31.141 554.436 31.325 554.86 31.461C555.284 31.597 555.712 31.665 556.144 31.665C556.632 31.665 557.016 31.569 557.296 31.377C557.576 31.185 557.716 30.921 557.716 30.585C557.716 30.265 557.592 30.013 557.344 29.829C557.096 29.645 556.696 29.553 556.144 29.553H555.256V28.269L557.596 25.617L557.812 26.313H553.408V24.753H559.288V26.013L556.96 28.665L555.976 28.101H556.54C557.572 28.101 558.352 28.333 558.88 28.797C559.408 29.261 559.672 29.857 559.672 30.585C559.672 31.057 559.548 31.501 559.3 31.917C559.052 32.325 558.672 32.657 558.16 32.913C557.648 33.169 556.992 33.297 556.192 33.297ZM564.17 33.297C563.482 33.297 562.866 33.129 562.322 32.793C561.778 32.449 561.35 31.953 561.038 31.305C560.726 30.657 560.57 29.873 560.57 28.953C560.57 28.033 560.726 27.249 561.038 26.601C561.35 25.953 561.778 25.461 562.322 25.125C562.866 24.781 563.482 24.609 564.17 24.609C564.866 24.609 565.482 24.781 566.018 25.125C566.562 25.461 566.99 25.953 567.302 26.601C567.614 27.249 567.77 28.033 567.77 28.953C567.77 29.873 567.614 30.657 567.302 31.305C566.99 31.953 566.562 32.449 566.018 32.793C565.482 33.129 564.866 33.297 564.17 33.297ZM564.17 31.653C564.498 31.653 564.782 31.561 565.022 31.377C565.27 31.193 565.462 30.901 565.598 30.501C565.742 30.101 565.814 29.585 565.814 28.953C565.814 28.321 565.742 27.805 565.598 27.405C565.462 27.005 565.27 26.713 565.022 26.529C564.782 26.345 564.498 26.253 564.17 26.253C563.85 26.253 563.566 26.345 563.318 26.529C563.078 26.713 562.886 27.005 562.742 27.405C562.606 27.805 562.538 28.321 562.538 28.953C562.538 29.585 562.606 30.101 562.742 30.501C562.886 30.901 563.078 31.193 563.318 31.377C563.566 31.561 563.85 31.653 564.17 31.653ZM568.905 30.525V29.025H572.301V30.525H568.905ZM573.317 31.389V30.081L577.277 24.753H579.317L575.441 30.081L574.493 29.805H581.105V31.389H573.317ZM577.841 33.153V31.389L577.901 29.805V28.233H579.737V33.153H577.841ZM585.287 33.297C584.599 33.297 583.983 33.129 583.439 32.793C582.895 32.449 582.467 31.953 582.155 31.305C581.843 30.657 581.687 29.873 581.687 28.953C581.687 28.033 581.843 27.249 582.155 26.601C582.467 25.953 582.895 25.461 583.439 25.125C583.983 24.781 584.599 24.609 585.287 24.609C585.983 24.609 586.599 24.781 587.135 25.125C587.679 25.461 588.107 25.953 588.419 26.601C588.731 27.249 588.887 28.033 588.887 28.953C588.887 29.873 588.731 30.657 588.419 31.305C588.107 31.953 587.679 32.449 587.135 32.793C586.599 33.129 585.983 33.297 585.287 33.297ZM585.287 31.653C585.615 31.653 585.899 31.561 586.139 31.377C586.387 31.193 586.579 30.901 586.715 30.501C586.859 30.101 586.931 29.585 586.931 28.953C586.931 28.321 586.859 27.805 586.715 27.405C586.579 27.005 586.387 26.713 586.139 26.529C585.899 26.345 585.615 26.253 585.287 26.253C584.967 26.253 584.683 26.345 584.435 26.529C584.195 26.713 584.003 27.005 583.859 27.405C583.723 27.805 583.655 28.321 583.655 28.953C583.655 29.585 583.723 30.101 583.859 30.501C584.003 30.901 584.195 31.193 584.435 31.377C584.683 31.561 584.967 31.653 585.287 31.653ZM597.586 33.153V31.893L597.466 31.617V29.361C597.466 28.961 597.342 28.649 597.094 28.425C596.854 28.201 596.482 28.089 595.978 28.089C595.634 28.089 595.294 28.145 594.958 28.257C594.63 28.361 594.35 28.505 594.118 28.689L593.446 27.381C593.798 27.133 594.222 26.941 594.718 26.805C595.214 26.669 595.718 26.601 596.23 26.601C597.214 26.601 597.978 26.833 598.522 27.297C599.066 27.761 599.338 28.485 599.338 29.469V33.153H597.586ZM595.618 33.249C595.114 33.249 594.682 33.165 594.322 32.997C593.962 32.821 593.686 32.585 593.494 32.289C593.302 31.993 593.206 31.661 593.206 31.293C593.206 30.909 593.298 30.573 593.482 30.285C593.674 29.997 593.974 29.773 594.382 29.613C594.79 29.445 595.322 29.361 595.978 29.361H597.694V30.453H596.182C595.742 30.453 595.438 30.525 595.27 30.669C595.11 30.813 595.03 30.993 595.03 31.209C595.03 31.449 595.122 31.641 595.306 31.785C595.498 31.921 595.758 31.989 596.086 31.989C596.398 31.989 596.678 31.917 596.926 31.773C597.174 31.621 597.354 31.401 597.466 31.113L597.754 31.977C597.618 32.393 597.37 32.709 597.01 32.925C596.65 33.141 596.186 33.249 595.618 33.249ZM596.41 26.049C596.138 26.049 595.886 25.985 595.654 25.857C595.43 25.721 595.254 25.545 595.126 25.329C594.998 25.113 594.934 24.869 594.934 24.597C594.934 24.333 594.998 24.093 595.126 23.877C595.254 23.653 595.43 23.477 595.654 23.349C595.886 23.213 596.138 23.145 596.41 23.145C596.698 23.145 596.954 23.213 597.178 23.349C597.402 23.477 597.578 23.653 597.706 23.877C597.842 24.093 597.91 24.333 597.91 24.597C597.91 24.869 597.842 25.113 597.706 25.329C597.578 25.545 597.402 25.721 597.178 25.857C596.954 25.985 596.698 26.049 596.41 26.049ZM596.422 25.329C596.63 25.329 596.802 25.261 596.938 25.125C597.074 24.989 597.142 24.817 597.142 24.609C597.142 24.393 597.074 24.217 596.938 24.081C596.802 23.937 596.626 23.865 596.41 23.865C596.21 23.865 596.038 23.933 595.894 24.069C595.758 24.205 595.69 24.381 595.69 24.597C595.69 24.813 595.758 24.989 595.894 25.125C596.038 25.261 596.214 25.329 596.422 25.329ZM601.032 33.153V26.697H602.82V28.521L602.568 27.993C602.76 27.537 603.068 27.193 603.492 26.961C603.916 26.721 604.432 26.601 605.04 26.601V28.329C604.96 28.321 604.888 28.317 604.824 28.317C604.76 28.309 604.692 28.305 604.62 28.305C604.108 28.305 603.692 28.453 603.372 28.749C603.06 29.037 602.904 29.489 602.904 30.105V33.153H601.032Z" fill="#231F20"/>
<path d="M704.372 257.373V256.065L708.332 250.737H710.372L706.496 256.065L705.548 255.789H712.16V257.373H704.372ZM708.896 259.137V257.373L708.956 255.789V254.217H710.792V259.137H708.896ZM716.341 259.281C715.653 259.281 715.037 259.113 714.493 258.777C713.949 258.433 713.521 257.937 713.209 257.289C712.897 256.641 712.741 255.857 712.741 254.937C712.741 254.017 712.897 253.233 713.209 252.585C713.521 251.937 713.949 251.445 714.493 251.109C715.037 250.765 715.653 250.593 716.341 250.593C717.037 250.593 717.653 250.765 718.189 251.109C718.733 251.445 719.161 251.937 719.473 252.585C719.785 253.233 719.941 254.017 719.941 254.937C719.941 255.857 719.785 256.641 719.473 257.289C719.161 257.937 718.733 258.433 718.189 258.777C717.653 259.113 717.037 259.281 716.341 259.281ZM716.341 257.637C716.669 257.637 716.953 257.545 717.193 257.361C717.441 257.177 717.633 256.885 717.769 256.485C717.913 256.085 717.985 255.569 717.985 254.937C717.985 254.305 717.913 253.789 717.769 253.389C717.633 252.989 717.441 252.697 717.193 252.513C716.953 252.329 716.669 252.237 716.341 252.237C716.021 252.237 715.737 252.329 715.489 252.513C715.249 252.697 715.057 252.989 714.913 253.389C714.777 253.789 714.709 254.305 714.709 254.937C714.709 255.569 714.777 256.085 714.913 256.485C715.057 256.885 715.249 257.177 715.489 257.361C715.737 257.545 716.021 257.637 716.341 257.637ZM721.077 256.509V255.009H724.473V256.509H721.077ZM726.588 259.137V251.457L727.428 252.297H724.908V250.737H728.532V259.137H726.588ZM733.591 259.281C732.903 259.281 732.287 259.113 731.743 258.777C731.199 258.433 730.771 257.937 730.459 257.289C730.147 256.641 729.991 255.857 729.991 254.937C729.991 254.017 730.147 253.233 730.459 252.585C730.771 251.937 731.199 251.445 731.743 251.109C732.287 250.765 732.903 250.593 733.591 250.593C734.287 250.593 734.903 250.765 735.439 251.109C735.983 251.445 736.411 251.937 736.723 252.585C737.035 253.233 737.191 254.017 737.191 254.937C737.191 255.857 737.035 256.641 736.723 257.289C736.411 257.937 735.983 258.433 735.439 258.777C734.903 259.113 734.287 259.281 733.591 259.281ZM733.591 257.637C733.919 257.637 734.203 257.545 734.443 257.361C734.691 257.177 734.883 256.885 735.019 256.485C735.163 256.085 735.235 255.569 735.235 254.937C735.235 254.305 735.163 253.789 735.019 253.389C734.883 252.989 734.691 252.697 734.443 252.513C734.203 252.329 733.919 252.237 733.591 252.237C733.271 252.237 732.987 252.329 732.739 252.513C732.499 252.697 732.307 252.989 732.163 253.389C732.027 253.789 731.959 254.305 731.959 254.937C731.959 255.569 732.027 256.085 732.163 256.485C732.307 256.885 732.499 257.177 732.739 257.361C732.987 257.545 733.271 257.637 733.591 257.637ZM741.736 259.281C741.048 259.281 740.432 259.113 739.888 258.777C739.344 258.433 738.916 257.937 738.604 257.289C738.292 256.641 738.136 255.857 738.136 254.937C738.136 254.017 738.292 253.233 738.604 252.585C738.916 251.937 739.344 251.445 739.888 251.109C740.432 250.765 741.048 250.593 741.736 250.593C742.432 250.593 743.048 250.765 743.584 251.109C744.128 251.445 744.556 251.937 744.868 252.585C745.18 253.233 745.336 254.017 745.336 254.937C745.336 255.857 745.18 256.641 744.868 257.289C744.556 257.937 744.128 258.433 743.584 258.777C743.048 259.113 742.432 259.281 741.736 259.281ZM741.736 257.637C742.064 257.637 742.348 257.545 742.588 257.361C742.836 257.177 743.028 256.885 743.164 256.485C743.308 256.085 743.38 255.569 743.38 254.937C743.38 254.305 743.308 253.789 743.164 253.389C743.028 252.989 742.836 252.697 742.588 252.513C742.348 252.329 742.064 252.237 741.736 252.237C741.416 252.237 741.132 252.329 740.884 252.513C740.644 252.697 740.452 252.989 740.308 253.389C740.172 253.789 740.104 254.305 740.104 254.937C740.104 255.569 740.172 256.085 740.308 256.485C740.452 256.885 740.644 257.177 740.884 257.361C741.132 257.545 741.416 257.637 741.736 257.637ZM754.035 259.137V257.877L753.915 257.601V255.345C753.915 254.945 753.791 254.633 753.543 254.409C753.303 254.185 752.931 254.073 752.427 254.073C752.083 254.073 751.743 254.129 751.407 254.241C751.079 254.345 750.799 254.489 750.567 254.673L749.895 253.365C750.247 253.117 750.671 252.925 751.167 252.789C751.663 252.653 752.167 252.585 752.679 252.585C753.663 252.585 754.427 252.817 754.971 253.281C755.515 253.745 755.787 254.469 755.787 255.453V259.137H754.035ZM752.067 259.233C751.563 259.233 751.131 259.149 750.771 258.981C750.411 258.805 750.135 258.569 749.943 258.273C749.751 257.977 749.655 257.645 749.655 257.277C749.655 256.893 749.747 256.557 749.931 256.269C750.123 255.981 750.423 255.757 750.831 255.597C751.239 255.429 751.771 255.345 752.427 255.345H754.143V256.437H752.631C752.191 256.437 751.887 256.509 751.719 256.653C751.559 256.797 751.479 256.977 751.479 257.193C751.479 257.433 751.571 257.625 751.755 257.769C751.947 257.905 752.207 257.973 752.535 257.973C752.847 257.973 753.127 257.901 753.375 257.757C753.623 257.605 753.803 257.385 753.915 257.097L754.203 257.961C754.067 258.377 753.819 258.693 753.459 258.909C753.099 259.125 752.635 259.233 752.067 259.233ZM752.859 252.033C752.587 252.033 752.335 251.969 752.103 251.841C751.879 251.705 751.703 251.529 751.575 251.313C751.447 251.097 751.383 250.853 751.383 250.581C751.383 250.317 751.447 250.077 751.575 249.861C751.703 249.637 751.879 249.461 752.103 249.333C752.335 249.197 752.587 249.129 752.859 249.129C753.147 249.129 753.403 249.197 753.627 249.333C753.851 249.461 754.027 249.637 754.155 249.861C754.291 250.077 754.359 250.317 754.359 250.581C754.359 250.853 754.291 251.097 754.155 251.313C754.027 251.529 753.851 251.705 753.627 251.841C753.403 251.969 753.147 252.033 752.859 252.033ZM752.871 251.313C753.079 251.313 753.251 251.245 753.387 251.109C753.523 250.973 753.591 250.801 753.591 250.593C753.591 250.377 753.523 250.201 753.387 250.065C753.251 249.921 753.075 249.849 752.859 249.849C752.659 249.849 752.487 249.917 752.343 250.053C752.207 250.189 752.139 250.365 752.139 250.581C752.139 250.797 752.207 250.973 752.343 251.109C752.487 251.245 752.663 251.313 752.871 251.313ZM757.481 259.137V252.681H759.269V254.505L759.017 253.977C759.209 253.521 759.517 253.177 759.941 252.945C760.365 252.705 760.881 252.585 761.489 252.585V254.313C761.409 254.305 761.337 254.301 761.273 254.301C761.209 254.293 761.141 254.289 761.069 254.289C760.557 254.289 760.141 254.437 759.821 254.733C759.509 255.021 759.353 255.473 759.353 256.089V259.137H757.481Z" fill="#231F20"/>
<path d="M884.824 110.43V109.17L884.704 108.894V106.638C884.704 106.238 884.58 105.926 884.332 105.702C884.092 105.478 883.72 105.366 883.216 105.366C882.872 105.366 882.532 105.422 882.196 105.534C881.868 105.638 881.588 105.782 881.356 105.966L880.684 104.658C881.036 104.41 881.46 104.218 881.956 104.082C882.452 103.946 882.956 103.878 883.468 103.878C884.452 103.878 885.216 104.11 885.76 104.574C886.304 105.038 886.576 105.762 886.576 106.746V110.43H884.824ZM882.856 110.526C882.352 110.526 881.92 110.442 881.56 110.274C881.2 110.098 880.924 109.862 880.732 109.566C880.54 109.27 880.444 108.938 880.444 108.57C880.444 108.186 880.536 107.85 880.72 107.562C880.912 107.274 881.212 107.05 881.62 106.89C882.028 106.722 882.56 106.638 883.216 106.638H884.932V107.73H883.42C882.98 107.73 882.676 107.802 882.508 107.946C882.348 108.09 882.268 108.27 882.268 108.486C882.268 108.726 882.36 108.918 882.544 109.062C882.736 109.198 882.996 109.266 883.324 109.266C883.636 109.266 883.916 109.194 884.164 109.05C884.412 108.898 884.592 108.678 884.704 108.39L884.992 109.254C884.856 109.67 884.608 109.986 884.248 110.202C883.888 110.418 883.424 110.526 882.856 110.526ZM889.905 110.43L887.193 103.974H889.125L891.381 109.53H890.421L892.761 103.974H894.561L891.837 110.43H889.905ZM895.646 110.526C895.326 110.526 895.05 110.418 894.818 110.202C894.594 109.978 894.482 109.694 894.482 109.35C894.482 109.006 894.594 108.73 894.818 108.522C895.05 108.306 895.326 108.198 895.646 108.198C895.974 108.198 896.25 108.306 896.474 108.522C896.698 108.73 896.81 109.006 896.81 109.35C896.81 109.694 896.698 109.978 896.474 110.202C896.25 110.418 895.974 110.526 895.646 110.526ZM904.681 110.574C903.993 110.574 903.377 110.406 902.833 110.07C902.289 109.726 901.861 109.23 901.549 108.582C901.237 107.934 901.081 107.15 901.081 106.23C901.081 105.31 901.237 104.526 901.549 103.878C901.861 103.23 902.289 102.738 902.833 102.402C903.377 102.058 903.993 101.886 904.681 101.886C905.377 101.886 905.993 102.058 906.529 102.402C907.073 102.738 907.501 103.23 907.813 103.878C908.125 104.526 908.281 105.31 908.281 106.23C908.281 107.15 908.125 107.934 907.813 108.582C907.501 109.23 907.073 109.726 906.529 110.07C905.993 110.406 905.377 110.574 904.681 110.574ZM904.681 108.93C905.009 108.93 905.293 108.838 905.533 108.654C905.781 108.47 905.973 108.178 906.109 107.778C906.253 107.378 906.325 106.862 906.325 106.23C906.325 105.598 906.253 105.082 906.109 104.682C905.973 104.282 905.781 103.99 905.533 103.806C905.293 103.622 905.009 103.53 904.681 103.53C904.361 103.53 904.077 103.622 903.829 103.806C903.589 103.99 903.397 104.282 903.253 104.682C903.117 105.082 903.049 105.598 903.049 106.23C903.049 106.862 903.117 107.378 903.253 107.778C903.397 108.178 903.589 108.47 903.829 108.654C904.077 108.838 904.361 108.93 904.681 108.93ZM909.417 107.802V106.302H912.813V107.802H909.417ZM914.928 110.43V102.75L915.768 103.59H913.248V102.03H916.872V110.43H914.928ZM921.931 110.574C921.243 110.574 920.627 110.406 920.083 110.07C919.539 109.726 919.111 109.23 918.799 108.582C918.487 107.934 918.331 107.15 918.331 106.23C918.331 105.31 918.487 104.526 918.799 103.878C919.111 103.23 919.539 102.738 920.083 102.402C920.627 102.058 921.243 101.886 921.931 101.886C922.627 101.886 923.243 102.058 923.779 102.402C924.323 102.738 924.751 103.23 925.063 103.878C925.375 104.526 925.531 105.31 925.531 106.23C925.531 107.15 925.375 107.934 925.063 108.582C924.751 109.23 924.323 109.726 923.779 110.07C923.243 110.406 922.627 110.574 921.931 110.574ZM921.931 108.93C922.259 108.93 922.543 108.838 922.783 108.654C923.031 108.47 923.223 108.178 923.359 107.778C923.503 107.378 923.575 106.862 923.575 106.23C923.575 105.598 923.503 105.082 923.359 104.682C923.223 104.282 923.031 103.99 922.783 103.806C922.543 103.622 922.259 103.53 921.931 103.53C921.611 103.53 921.327 103.622 921.079 103.806C920.839 103.99 920.647 104.282 920.503 104.682C920.367 105.082 920.299 105.598 920.299 106.23C920.299 106.862 920.367 107.378 920.503 107.778C920.647 108.178 920.839 108.47 921.079 108.654C921.327 108.838 921.611 108.93 921.931 108.93ZM930.076 110.574C929.388 110.574 928.772 110.406 928.228 110.07C927.684 109.726 927.256 109.23 926.944 108.582C926.632 107.934 926.476 107.15 926.476 106.23C926.476 105.31 926.632 104.526 926.944 103.878C927.256 103.23 927.684 102.738 928.228 102.402C928.772 102.058 929.388 101.886 930.076 101.886C930.772 101.886 931.388 102.058 931.924 102.402C932.468 102.738 932.896 103.23 933.208 103.878C933.52 104.526 933.676 105.31 933.676 106.23C933.676 107.15 933.52 107.934 933.208 108.582C932.896 109.23 932.468 109.726 931.924 110.07C931.388 110.406 930.772 110.574 930.076 110.574ZM930.076 108.93C930.404 108.93 930.688 108.838 930.928 108.654C931.176 108.47 931.368 108.178 931.504 107.778C931.648 107.378 931.72 106.862 931.72 106.23C931.72 105.598 931.648 105.082 931.504 104.682C931.368 104.282 931.176 103.99 930.928 103.806C930.688 103.622 930.404 103.53 930.076 103.53C929.756 103.53 929.472 103.622 929.224 103.806C928.984 103.99 928.792 104.282 928.648 104.682C928.512 105.082 928.444 105.598 928.444 106.23C928.444 106.862 928.512 107.378 928.648 107.778C928.792 108.178 928.984 108.47 929.224 108.654C929.472 108.838 929.756 108.93 930.076 108.93ZM942.375 110.43V109.17L942.255 108.894V106.638C942.255 106.238 942.131 105.926 941.883 105.702C941.643 105.478 941.271 105.366 940.767 105.366C940.423 105.366 940.083 105.422 939.747 105.534C939.419 105.638 939.139 105.782 938.907 105.966L938.235 104.658C938.587 104.41 939.011 104.218 939.507 104.082C940.003 103.946 940.507 103.878 941.019 103.878C942.003 103.878 942.767 104.11 943.311 104.574C943.855 105.038 944.127 105.762 944.127 106.746V110.43H942.375ZM940.407 110.526C939.903 110.526 939.471 110.442 939.111 110.274C938.751 110.098 938.475 109.862 938.283 109.566C938.091 109.27 937.995 108.938 937.995 108.57C937.995 108.186 938.087 107.85 938.271 107.562C938.463 107.274 938.763 107.05 939.171 106.89C939.579 106.722 940.111 106.638 940.767 106.638H942.483V107.73H940.971C940.531 107.73 940.227 107.802 940.059 107.946C939.899 108.09 939.819 108.27 939.819 108.486C939.819 108.726 939.911 108.918 940.095 109.062C940.287 109.198 940.547 109.266 940.875 109.266C941.187 109.266 941.467 109.194 941.715 109.05C941.963 108.898 942.143 108.678 942.255 108.39L942.543 109.254C942.407 109.67 942.159 109.986 941.799 110.202C941.439 110.418 940.975 110.526 940.407 110.526ZM941.199 103.326C940.927 103.326 940.675 103.262 940.443 103.134C940.219 102.998 940.043 102.822 939.915 102.606C939.787 102.39 939.723 102.146 939.723 101.874C939.723 101.61 939.787 101.37 939.915 101.154C940.043 100.93 940.219 100.754 940.443 100.626C940.675 100.49 940.927 100.422 941.199 100.422C941.487 100.422 941.743 100.49 941.967 100.626C942.191 100.754 942.367 100.93 942.495 101.154C942.631 101.37 942.699 101.61 942.699 101.874C942.699 102.146 942.631 102.39 942.495 102.606C942.367 102.822 942.191 102.998 941.967 103.134C941.743 103.262 941.487 103.326 941.199 103.326ZM941.211 102.606C941.419 102.606 941.591 102.538 941.727 102.402C941.863 102.266 941.931 102.094 941.931 101.886C941.931 101.67 941.863 101.494 941.727 101.358C941.591 101.214 941.415 101.142 941.199 101.142C940.999 101.142 940.827 101.21 940.683 101.346C940.547 101.482 940.479 101.658 940.479 101.874C940.479 102.09 940.547 102.266 940.683 102.402C940.827 102.538 941.003 102.606 941.211 102.606ZM945.821 110.43V103.974H947.609V105.798L947.357 105.27C947.549 104.814 947.857 104.47 948.281 104.238C948.705 103.998 949.221 103.878 949.829 103.878V105.606C949.749 105.598 949.677 105.594 949.613 105.594C949.549 105.586 949.481 105.582 949.409 105.582C948.897 105.582 948.481 105.73 948.161 106.026C947.849 106.314 947.693 106.766 947.693 107.382V110.43H945.821Z" fill="#231F20"/>
<path d="M193.228 316.375L181.716 343.371H204.749L193.228 316.375Z" fill="#738874"/>
<path d="M195.317 343.371H191.139V348.991H195.317V343.371Z" fill="#465348"/>
<path d="M1002.47 298.697L986.939 335.096H1018L1002.47 298.697Z" fill="#738874"/>
<path d="M1005.29 335.096H999.655V342.673H1005.29V335.096Z" fill="#465348"/>
<path d="M459.526 94L444 130.4H475.052L459.526 94Z" fill="#738874"/>
<path d="M462.345 130.4H456.707V137.976H462.345V130.4Z" fill="#465348"/>
<path d="M495.12 444.011L485.588 466.361H504.653L495.12 444.011Z" fill="#738874"/>
<path d="M496.845 466.361H493.387V471.016H496.845V466.361Z" fill="#465348"/>
<path d="M821.178 512.303L811.645 534.644H830.711L821.178 512.303Z" fill="#738874"/>
<path d="M822.902 534.644H819.445V539.299H822.902V534.644Z" fill="#465348"/>
<path d="M8.184 524L7.488 520.16H4.2L3.552 524H0.12L3.384 507.368H8.4L11.616 524H8.184ZM4.704 517.112H6.96L5.808 510.68L4.704 517.112ZM7.224 506.456C6.888 506.808 6.416 506.984 5.808 506.984C5.2 506.984 4.72 506.8 4.368 506.432C4.032 506.064 3.864 505.608 3.864 505.064C3.864 504.52 4.032 504.072 4.368 503.72C4.72 503.352 5.2 503.168 5.808 503.168C6.416 503.168 6.888 503.352 7.224 503.72C7.576 504.072 7.752 504.528 7.752 505.088C7.752 505.632 7.576 506.088 7.224 506.456ZM6.288 504.584C6.176 504.456 6.016 504.392 5.808 504.392C5.6 504.392 5.432 504.456 5.304 504.584C5.192 504.712 5.136 504.872 5.136 505.064C5.136 505.528 5.36 505.76 5.808 505.76C6.256 505.76 6.48 505.528 6.48 505.064C6.48 504.872 6.416 504.712 6.288 504.584ZM16.4222 518V524H12.8222V507.368H18.2462C19.5582 507.368 20.5822 507.68 21.3182 508.304C22.0542 508.928 22.4222 509.84 22.4222 511.04V514.112C22.4222 516.032 21.7662 517.232 20.4542 517.712L23.0702 524H19.1102L16.8782 518H16.4222ZM16.4222 510.44V515.144H17.8382C18.2062 515.144 18.4622 515.064 18.6062 514.904C18.7502 514.744 18.8222 514.464 18.8222 514.064V511.352C18.8222 511 18.7422 510.76 18.5822 510.632C18.4222 510.504 18.1742 510.44 17.8382 510.44H16.4222ZM24.4003 507.368H28.0483V520.976H32.4883V524H24.4003V507.368ZM33.6816 507.368H37.3296V524H33.6816V507.368ZM39.2541 511.376C39.2541 510.112 39.7341 509.112 40.6941 508.376C41.6701 507.624 43.0541 507.248 44.8461 507.248C46.1901 507.248 47.3181 507.4 48.2301 507.704V511.112C47.2701 510.744 46.3101 510.56 45.3501 510.56C44.3901 510.56 43.7421 510.672 43.4061 510.896C43.0701 511.12 42.9021 511.424 42.9021 511.808V519.704C42.9021 520.088 43.0221 520.384 43.2621 520.592C43.5021 520.784 43.8541 520.88 44.3181 520.88C44.7981 520.88 45.1661 520.816 45.4221 520.688V515.072H48.9261V523.112C47.6781 523.784 46.1981 524.12 44.4861 524.12C42.7741 524.12 41.4701 523.768 40.5741 523.064C39.6941 522.36 39.2541 521.368 39.2541 520.088V511.376ZM58.7738 524H55.1738V507.368H58.7738V514.856L61.5098 507.368H65.3498L62.3018 515.408L65.6378 524H61.6298L58.7738 516.056V524ZM73.0856 507.368H76.6856V519.944C76.6856 521.256 76.2616 522.304 75.4136 523.088C74.5816 523.856 73.3416 524.24 71.6936 524.24C70.0616 524.24 68.8216 523.856 67.9736 523.088C67.1416 522.32 66.7256 521.272 66.7256 519.944V507.368H70.3256V519.752C70.3256 520.552 70.7816 520.952 71.6936 520.952C72.6216 520.952 73.0856 520.552 73.0856 519.752V507.368ZM78.7284 507.368H82.3764V520.976H86.8164V524H78.7284V507.368ZM87.4097 511.256C87.4097 509.976 87.8417 508.992 88.7057 508.304C89.5697 507.6 90.8097 507.248 92.4257 507.248C94.0577 507.248 95.2737 507.416 96.0737 507.752V511.208C95.0977 510.792 93.9857 510.584 92.7377 510.584C92.0977 510.584 91.6657 510.688 91.4417 510.896C91.2177 511.088 91.1057 511.368 91.1057 511.736V512.096C91.1057 512.544 91.1777 512.88 91.3217 513.104C91.4817 513.312 91.8177 513.552 92.3297 513.824L95.0657 515.36C96.3777 516.08 97.0337 517.16 97.0337 518.6V520.088C97.0337 521.384 96.5537 522.384 95.5937 523.088C94.6337 523.776 93.2817 524.12 91.5377 524.12C89.8097 524.12 88.5057 523.936 87.6257 523.568V520.088C88.7137 520.552 89.9457 520.784 91.3217 520.784C92.6977 520.784 93.3857 520.392 93.3857 519.608V519.248C93.3857 518.88 93.3057 518.608 93.1457 518.432C93.0017 518.24 92.7217 518.032 92.3057 517.808L89.7377 516.416C88.1857 515.552 87.4097 514.336 87.4097 512.768V511.256ZM107.245 507.368V510.488H104.245V524H100.597V510.488H97.5966V507.368H107.245ZM114.663 511.616C114.663 510.816 114.183 510.416 113.223 510.416C112.279 510.416 111.807 510.816 111.807 511.616V519.752C111.807 520.552 112.279 520.952 113.223 520.952C114.183 520.952 114.663 520.552 114.663 519.752V511.616ZM108.207 511.424C108.207 510.112 108.631 509.072 109.479 508.304C110.327 507.52 111.575 507.128 113.223 507.128C114.871 507.128 116.119 507.52 116.967 508.304C117.831 509.072 118.263 510.112 118.263 511.424V519.944C118.263 521.256 117.831 522.304 116.967 523.088C116.119 523.856 114.871 524.24 113.223 524.24C111.575 524.24 110.327 523.856 109.479 523.088C108.631 522.304 108.207 521.256 108.207 519.944V511.424ZM120.189 507.368H128.421V510.512H123.837V514.616H128.061V517.832H123.837V524H120.189V507.368ZM139.637 511.184V512.744C139.637 514.296 139.069 515.248 137.933 515.6C139.165 515.888 139.781 516.848 139.781 518.48V520.184C139.781 522.728 138.421 524 135.701 524H129.869V507.368H135.557C138.277 507.368 139.637 508.64 139.637 511.184ZM134.957 510.392H133.469V514.016H134.957C135.709 514.016 136.085 513.672 136.085 512.984V511.424C136.085 510.736 135.709 510.392 134.957 510.392ZM136.229 519.944V518.24C136.229 517.552 135.853 517.208 135.101 517.208H133.469V520.976H135.101C135.853 520.976 136.229 520.632 136.229 519.944ZM141.705 507.368H145.353V524H141.705V507.368ZM154.574 507.368H158.126V524H154.67C152.302 517.952 150.934 514.304 150.566 513.056C150.902 514.32 151.07 516.496 151.07 519.584V524H147.518V507.368H151.07L153.254 512.936C154.182 515.32 154.806 517.128 155.126 518.36C154.758 516.808 154.574 514.536 154.574 511.544V507.368ZM166.603 511.208C166.603 510.92 166.531 510.704 166.387 510.56C166.259 510.4 166.003 510.32 165.619 510.32H163.891V520.904H165.619C166.275 520.904 166.603 520.536 166.603 519.8V511.208ZM160.291 507.368H166.123C167.419 507.368 168.419 507.68 169.123 508.304C169.843 508.928 170.203 509.848 170.203 511.064V520.088C170.203 522.696 168.915 524 166.339 524H160.291V507.368ZM172.127 507.368H175.775V524H172.127V507.368ZM184.995 507.368H188.547V524H185.091C182.723 517.952 181.355 514.304 180.987 513.056C181.323 514.32 181.491 516.496 181.491 519.584V524H177.939V507.368H181.491L183.675 512.936C184.603 515.32 185.227 517.128 185.547 518.36C185.179 516.808 184.995 514.536 184.995 511.544V507.368ZM190.473 511.376C190.473 510.112 190.953 509.112 191.913 508.376C192.889 507.624 194.273 507.248 196.065 507.248C197.409 507.248 198.537 507.4 199.449 507.704V511.112C198.489 510.744 197.529 510.56 196.569 510.56C195.609 510.56 194.961 510.672 194.625 510.896C194.289 511.12 194.121 511.424 194.121 511.808V519.704C194.121 520.088 194.241 520.384 194.481 520.592C194.721 520.784 195.073 520.88 195.537 520.88C196.017 520.88 196.385 520.816 196.641 520.688V515.072H200.145V523.112C198.897 523.784 197.417 524.12 195.705 524.12C193.993 524.12 192.689 523.768 191.793 523.064C190.913 522.36 190.473 521.368 190.473 520.088V511.376Z" fill="#465349"/>
<path d="M3.08 550.716C2.56667 549.867 2.16533 548.887 1.876 547.776C1.596 546.656 1.456 545.452 1.456 544.164C1.456 542.876 1.596 541.672 1.876 540.552C2.16533 539.423 2.56667 538.443 3.08 537.612H4.032C3.48133 538.573 3.07533 539.595 2.814 540.678C2.562 541.751 2.436 542.913 2.436 544.164C2.436 545.415 2.562 546.581 2.814 547.664C3.07533 548.737 3.48133 549.755 4.032 550.716H3.08ZM7.90234 548V539.096H4.45834V538.2H12.3823V539.096H8.93834V548H7.90234ZM21.9575 548.084C21.2201 548.084 20.5388 547.963 19.9135 547.72C19.2881 547.468 18.7468 547.118 18.2895 546.67C17.8321 546.222 17.4728 545.695 17.2115 545.088C16.9595 544.481 16.8335 543.819 16.8335 543.1C16.8335 542.381 16.9595 541.719 17.2115 541.112C17.4728 540.505 17.8321 539.978 18.2895 539.53C18.7561 539.082 19.3021 538.737 19.9275 538.494C20.5528 538.242 21.2341 538.116 21.9715 538.116C22.6808 538.116 23.3481 538.237 23.9735 538.48C24.5988 538.713 25.1261 539.068 25.5555 539.544L24.8975 540.202C24.4961 539.791 24.0528 539.497 23.5675 539.32C23.0821 539.133 22.5595 539.04 21.9995 539.04C21.4115 539.04 20.8655 539.143 20.3615 539.348C19.8575 539.544 19.4188 539.829 19.0455 540.202C18.6721 540.566 18.3781 540.995 18.1635 541.49C17.9581 541.975 17.8555 542.512 17.8555 543.1C17.8555 543.688 17.9581 544.229 18.1635 544.724C18.3781 545.209 18.6721 545.639 19.0455 546.012C19.4188 546.376 19.8575 546.661 20.3615 546.866C20.8655 547.062 21.4115 547.16 21.9995 547.16C22.5595 547.16 23.0821 547.067 23.5675 546.88C24.0528 546.693 24.4961 546.395 24.8975 545.984L25.5555 546.642C25.1261 547.118 24.5988 547.477 23.9735 547.72C23.3481 547.963 22.6761 548.084 21.9575 548.084ZM31.8429 548.084C31.1056 548.084 30.4196 547.963 29.7849 547.72C29.1596 547.468 28.6136 547.118 28.1469 546.67C27.6896 546.213 27.3302 545.685 27.0689 545.088C26.8169 544.481 26.6909 543.819 26.6909 543.1C26.6909 542.381 26.8169 541.723 27.0689 541.126C27.3302 540.519 27.6896 539.992 28.1469 539.544C28.6136 539.087 29.1596 538.737 29.7849 538.494C30.4102 538.242 31.0962 538.116 31.8429 538.116C32.5802 538.116 33.2616 538.242 33.8869 538.494C34.5122 538.737 35.0536 539.082 35.5109 539.53C35.9776 539.978 36.3369 540.505 36.5889 541.112C36.8502 541.719 36.9809 542.381 36.9809 543.1C36.9809 543.819 36.8502 544.481 36.5889 545.088C36.3369 545.695 35.9776 546.222 35.5109 546.67C35.0536 547.118 34.5122 547.468 33.8869 547.72C33.2616 547.963 32.5802 548.084 31.8429 548.084ZM31.8429 547.16C32.4309 547.16 32.9722 547.062 33.4669 546.866C33.9709 546.661 34.4049 546.376 34.7689 546.012C35.1422 545.639 35.4316 545.209 35.6369 544.724C35.8422 544.229 35.9449 543.688 35.9449 543.1C35.9449 542.512 35.8422 541.975 35.6369 541.49C35.4316 540.995 35.1422 540.566 34.7689 540.202C34.4049 539.829 33.9709 539.544 33.4669 539.348C32.9722 539.143 32.4309 539.04 31.8429 539.04C31.2549 539.04 30.7089 539.143 30.2049 539.348C29.7009 539.544 29.2622 539.829 28.8889 540.202C28.5249 540.566 28.2356 540.995 28.0209 541.49C27.8156 541.975 27.7129 542.512 27.7129 543.1C27.7129 543.679 27.8156 544.215 28.0209 544.71C28.2356 545.205 28.5249 545.639 28.8889 546.012C29.2622 546.376 29.7009 546.661 30.2049 546.866C30.7089 547.062 31.2549 547.16 31.8429 547.16ZM38.1163 548V547.286L42.1903 543.296C42.5636 542.932 42.8436 542.615 43.0303 542.344C43.217 542.064 43.343 541.803 43.4083 541.56C43.4736 541.317 43.5063 541.089 43.5063 540.874C43.5063 540.305 43.3103 539.857 42.9183 539.53C42.5356 539.203 41.9663 539.04 41.2103 539.04C40.6316 539.04 40.1183 539.129 39.6703 539.306C39.2316 539.483 38.8536 539.759 38.5363 540.132L37.8223 539.516C38.205 539.068 38.695 538.723 39.2923 538.48C39.8896 538.237 40.557 538.116 41.2943 538.116C41.957 538.116 42.531 538.223 43.0163 538.438C43.5016 538.643 43.875 538.947 44.1363 539.348C44.407 539.749 44.5423 540.221 44.5423 540.762C44.5423 541.079 44.4956 541.392 44.4023 541.7C44.3183 542.008 44.1596 542.335 43.9263 542.68C43.7023 543.016 43.371 543.399 42.9323 543.828L39.1943 547.496L38.9143 547.104H44.9903V548H38.1163ZM46.258 544.64V543.772H49.926V544.64H46.258ZM50.5866 548L56.5646 538.2H57.5866V539.096H56.6626L57.3066 538.676L51.6646 548H50.5866ZM52.9246 545.382L53.0366 544.542H57.5866V545.382H52.9246ZM58.1746 542.582H63.3686V543.464H58.1746V542.582ZM58.2866 547.104H64.1806V548H57.2506V538.2H63.9706V539.096H58.2866V547.104ZM69.2687 548L64.9287 538.2H66.0487L70.1087 547.426H69.4927L73.5807 538.2H74.6307L70.2907 548H69.2687ZM76.053 548V538.2H77.089V548H76.053ZM82.9543 548L78.6143 538.2H79.7343L83.7943 547.426H83.1783L87.2663 538.2H88.3163L83.9763 548H82.9543ZM87.8698 548L92.3498 538.2H93.3718L97.8518 548H96.7598L92.6438 538.802H93.0638L88.9478 548H87.8698ZM89.6338 545.382L89.9418 544.542H95.6398L95.9478 545.382H89.6338ZM99.473 548V538.2H100.509V547.104H105.997V548H99.473ZM108.641 542.582H113.821V543.464H108.641V542.582ZM108.753 547.104H114.647V548H107.717V538.2H114.437V539.096H108.753V547.104ZM117.082 548V538.2H117.936L124.698 546.712H124.25V538.2H125.272V548H124.418L117.67 539.488H118.118V548H117.082ZM130.375 548V539.096H126.931V538.2H134.855V539.096H131.411V548H130.375ZM134.291 549.4L138.911 536.212H139.821L135.201 549.4H134.291ZM148.094 538.2H149.116V548H148.094V538.2ZM141.962 548H140.926V538.2H141.962V548ZM148.192 543.478H141.85V542.568H148.192V543.478ZM150.747 548L155.227 538.2H156.249L160.729 548H159.637L155.521 538.802H155.941L151.825 548H150.747ZM152.511 545.382L152.819 544.542H158.517L158.825 545.382H152.511ZM160.828 549.4L165.448 536.212H166.358L161.738 549.4H160.828ZM165.335 548L169.815 538.2H170.837L175.317 548H174.225L170.109 538.802H170.529L166.413 548H165.335ZM167.099 545.382L167.407 544.542H173.105L173.413 545.382H167.099ZM170.319 537.22C170.039 537.22 169.787 537.155 169.563 537.024C169.348 536.893 169.175 536.721 169.045 536.506C168.923 536.291 168.863 536.053 168.863 535.792C168.863 535.531 168.928 535.288 169.059 535.064C169.189 534.84 169.362 534.663 169.577 534.532C169.801 534.392 170.048 534.322 170.319 534.322C170.599 534.322 170.846 534.392 171.061 534.532C171.285 534.663 171.462 534.84 171.593 535.064C171.723 535.288 171.789 535.531 171.789 535.792C171.789 536.053 171.723 536.291 171.593 536.506C171.462 536.721 171.285 536.893 171.061 537.024C170.846 537.155 170.599 537.22 170.319 537.22ZM170.319 536.73C170.599 536.73 170.827 536.641 171.005 536.464C171.182 536.277 171.271 536.053 171.271 535.792C171.271 535.521 171.182 535.293 171.005 535.106C170.827 534.91 170.599 534.812 170.319 534.812C170.048 534.812 169.824 534.905 169.647 535.092C169.469 535.279 169.381 535.512 169.381 535.792C169.381 536.063 169.465 536.287 169.633 536.464C169.81 536.641 170.039 536.73 170.319 536.73ZM176.938 548V538.2H180.606C181.436 538.2 182.15 538.335 182.748 538.606C183.345 538.867 183.802 539.25 184.12 539.754C184.446 540.249 184.61 540.851 184.61 541.56C184.61 542.251 184.446 542.848 184.12 543.352C183.802 543.847 183.345 544.229 182.748 544.5C182.15 544.761 181.436 544.892 180.606 544.892H177.512L177.974 544.416V548H176.938ZM183.63 548L181.11 544.444H182.23L184.764 548H183.63ZM177.974 544.5L177.512 544.01H180.578C181.558 544.01 182.3 543.795 182.804 543.366C183.317 542.937 183.574 542.335 183.574 541.56C183.574 540.776 183.317 540.169 182.804 539.74C182.3 539.311 181.558 539.096 180.578 539.096H177.512L177.974 538.606V544.5ZM186.971 550.716H186.019C186.579 549.755 186.985 548.737 187.237 547.664C187.498 546.581 187.629 545.415 187.629 544.164C187.629 542.913 187.498 541.751 187.237 540.678C186.985 539.595 186.579 538.573 186.019 537.612H186.971C187.503 538.443 187.909 539.423 188.189 540.552C188.469 541.672 188.609 542.876 188.609 544.164C188.609 545.452 188.469 546.656 188.189 547.776C187.909 548.887 187.503 549.867 186.971 550.716Z" fill="#465349"/>
</g>
<defs>
<clipPath id="clip0_561_1376">
<rect width="1018" height="577" fill="white"/>
</clipPath>
</defs>
</svg>
